<?xml version="1.0" encoding="utf-8" standalone="no"?>
<!DOCTYPE svg PUBLIC "-//W3C//DTD SVG 1.1//EN"
  "http://www.w3.org/Graphics/SVG/1.1/DTD/svg11.dtd">
<svg xmlns:xlink="http://www.w3.org/1999/xlink" width="225.703457pt" height="154.55952pt" viewBox="0 0 225.703457 154.55952" xmlns="http://www.w3.org/2000/svg" version="1.1">
 <metadata>
  <rdf:RDF xmlns:dc="http://purl.org/dc/elements/1.1/" xmlns:cc="http://creativecommons.org/ns#" xmlns:rdf="http://www.w3.org/1999/02/22-rdf-syntax-ns#">
   <cc:Work>
    <dc:type rdf:resource="http://purl.org/dc/dcmitype/StillImage"/>
    <dc:date>2026-04-08T10:37:33.397241</dc:date>
    <dc:format>image/svg+xml</dc:format>
    <dc:creator>
     <cc:Agent>
      <dc:title>Matplotlib v3.10.6, https://matplotlib.org/</dc:title>
     </cc:Agent>
    </dc:creator>
   </cc:Work>
  </rdf:RDF>
 </metadata>
 <defs>
  <style type="text/css">*{stroke-linejoin: round; stroke-linecap: butt}</style>
 </defs>
 <g id="figure_1">
  <g id="patch_1">
   <path d="M 0 154.55952 
L 225.703457 154.55952 
L 225.703457 0 
L 0 0 
z
" style="fill: #ffffff"/>
  </g>
  <g id="axes_1">
   <g id="line2d_1">
    <path d="M 123.678538 79.179665 
L 46.074916 91.576514 
L 12.334178 27.953566 
" clip-path="url(#p7da81ab4c8)" style="fill: none; stroke: #808080; stroke-linecap: square"/>
   </g>
   <g id="patch_2">
    <path d="M 153.905988 72.401031 
C 153.905988 67.692617 152.058971 63.167117 148.764418 59.803328 
C 145.469866 56.439538 140.983753 54.498813 136.276357 54.400902 
C 131.568962 54.302992 127.006032 56.055502 123.574459 59.279393 
C 120.142887 62.503284 118.109294 66.94807 117.913515 71.652412 
" clip-path="url(#p7da81ab4c8)" style="fill: none; stroke: #000000; stroke-linejoin: miter; stroke-linecap: round"/>
   </g>
   <g id="patch_3">
    <path d="M 118.197521 73.430273 
L 119.311185 70.517525 
L 116.23184 71.009438 
z
" clip-path="url(#p7da81ab4c8)" style="stroke: #000000; stroke-linejoin: miter"/>
   </g>
   <g id="patch_4">
    <path d="M 165.891087 105.965264 
C 170.946865 101.448004 174.917258 95.846256 177.504867 89.579613 
C 180.092476 83.312971 181.231038 76.541908 180.835269 69.773608 
" clip-path="url(#p7da81ab4c8)" style="fill: none; stroke: #000000; stroke-linejoin: miter; stroke-linecap: round"/>
   </g>
   <g id="patch_5">
    <path d="M 180.551263 67.995747 
L 179.437599 70.908494 
L 182.516944 70.416582 
z
" clip-path="url(#p7da81ab4c8)" style="stroke: #000000; stroke-linejoin: miter"/>
   </g>
   <g id="patch_6">
    <path d="M 41.240536 70.26957 
C 38.463813 71.742132 36.120502 73.916454 34.444611 76.575405 
C 32.768721 79.234356 31.817959 82.286378 31.687269 85.426688 
" clip-path="url(#p7da81ab4c8)" style="fill: none; stroke: #000000; stroke-linejoin: miter; stroke-linecap: round"/>
   </g>
   <g id="patch_7">
    <path d="M 31.971275 87.204549 
L 33.084939 84.291802 
L 30.005594 84.783714 
z
" clip-path="url(#p7da81ab4c8)" style="stroke: #000000; stroke-linejoin: miter"/>
   </g>
   <g id="patch_8">
    <path d="M 178.846387 120.465012 
C 176.502614 122.559137 174.747562 125.230948 173.756495 128.213634 
C 172.765428 131.19632 172.572471 134.387175 173.196895 137.467552 
" clip-path="url(#p7da81ab4c8)" style="fill: none; stroke: #000000; stroke-linejoin: miter; stroke-linecap: round"/>
   </g>
   <g id="patch_9">
    <path d="M 173.898004 139.125832 
L 174.282453 136.031233 
L 171.410227 137.245591 
z
" clip-path="url(#p7da81ab4c8)" style="stroke: #000000; stroke-linejoin: miter"/>
   </g>
   <g id="line2d_2">
    <path d="M 218.203659 122.322396 
L 190.842035 133.890705 
L 135.901967 72.401031 
L 49.675721 86.175307 
L 7.499798 6.646622 
" clip-path="url(#p7da81ab4c8)" style="fill: none; stroke: #000000; stroke-linecap: square"/>
   </g>
   <g id="line2d_3">
    <path d="M 190.842035 133.890705 
L 157.67643 147.912898 
" clip-path="url(#p7da81ab4c8)" style="fill: none; stroke-dasharray: 3.7,1.6; stroke-dashoffset: 0; stroke: #000000; stroke-opacity: 0.5"/>
   </g>
   <g id="line2d_4">
    <path d="M 135.901967 72.401031 
L 189.237789 63.88086 
" clip-path="url(#p7da81ab4c8)" style="fill: none; stroke-dasharray: 3.7,1.6; stroke-dashoffset: 0; stroke: #000000; stroke-opacity: 0.5"/>
   </g>
   <g id="line2d_5">
    <path d="M 135.901967 72.401031 
L 162.907999 72.401031 
" clip-path="url(#p7da81ab4c8)" style="fill: none; stroke-dasharray: 3.7,1.6; stroke-dashoffset: 0; stroke: #000000; stroke-opacity: 0.5"/>
   </g>
   <g id="line2d_6">
    <path d="M 49.675721 86.175307 
L 14.118506 91.855421 
" clip-path="url(#p7da81ab4c8)" style="fill: none; stroke-dasharray: 3.7,1.6; stroke-dashoffset: 0; stroke: #000000; stroke-opacity: 0.5"/>
   </g>
   <g id="text_1">
    <!-- $\phi_{thigh}$ -->
    <g transform="translate(124.901967 49.1754) scale(0.11 -0.11)">
     <defs>
      <path id="MinionPro-It-3d5" d="M 2650 4256 
L 2560 4314 
L 2240 4070 
C 1837 2227 1549 890 1440 314 
C 1120 435 832 787 832 1331 
C 832 2080 1184 2483 1766 2746 
L 1683 2931 
C 928 2669 294 2125 294 1261 
C 294 602 678 77 1357 -58 
C 1306 -333 1248 -608 1197 -864 
C 1088 -1382 1235 -1600 1344 -1645 
L 1382 -1626 
C 1485 -1152 1632 -448 1728 -58 
C 2592 -19 3379 646 3379 1594 
C 3379 2342 2957 2765 2426 2982 
C 2381 3008 2387 3098 2426 3290 
L 2650 4256 
z
M 2944 1536 
C 2944 794 2534 218 1786 243 
C 1907 858 2234 2349 2291 2624 
C 2554 2522 2944 2144 2944 1536 
z
" transform="scale(0.015625)"/>
      <path id="MinionPro-It-74" d="M 2163 2758 
L 1414 2758 
L 1645 3725 
L 1581 3763 
L 1101 3360 
L 954 2758 
L 563 2758 
L 403 2560 
L 422 2502 
L 896 2502 
L 525 768 
C 378 109 506 -77 653 -77 
C 992 -77 1478 352 1690 608 
L 1594 742 
C 1440 582 1133 371 1024 371 
C 954 371 915 442 986 755 
L 1357 2509 
L 1997 2534 
L 2163 2758 
z
" transform="scale(0.015625)"/>
      <path id="MinionPro-It-68" d="M 2982 691 
C 2803 518 2598 397 2534 397 
C 2490 403 2477 448 2515 634 
L 2848 2061 
C 3008 2752 2835 2874 2675 2874 
C 2554 2874 2406 2829 2240 2739 
C 1952 2586 1478 2246 1056 1677 
L 1043 1677 
L 1613 4333 
C 1651 4506 1645 4557 1587 4557 
C 1504 4557 1158 4384 659 4333 
L 634 4173 
L 819 4166 
C 1069 4166 1101 4147 1037 3808 
C 781 2502 499 1210 224 -26 
L 269 -77 
C 410 -26 576 13 723 45 
C 781 352 896 922 966 1210 
C 1274 1766 2022 2483 2317 2483 
C 2419 2483 2451 2368 2368 2022 
L 2029 544 
C 1926 102 1971 -77 2138 -77 
C 2323 -77 2720 147 3059 538 
L 2982 691 
z
" transform="scale(0.015625)"/>
      <path id="MinionPro-It-69" d="M 1414 4096 
C 1197 4096 1069 3885 1075 3718 
C 1075 3552 1184 3443 1331 3443 
C 1530 3443 1677 3616 1670 3808 
C 1670 3962 1581 4096 1414 4096 
z
M 1427 698 
C 1274 563 1056 397 979 397 
C 941 397 928 448 966 602 
L 1402 2362 
C 1478 2662 1485 2867 1338 2867 
C 1171 2867 723 2605 371 2259 
L 448 2118 
C 646 2278 838 2387 890 2387 
C 928 2387 928 2323 896 2182 
L 493 550 
C 365 26 454 -77 582 -77 
C 800 -77 1293 301 1510 557 
L 1427 698 
z
" transform="scale(0.015625)"/>
      <path id="MinionPro-It-67" d="M 3002 2842 
C 2874 2771 2643 2701 2278 2694 
C 2138 2816 1939 2874 1734 2874 
C 1504 2874 1178 2765 915 2554 
C 589 2298 378 1901 378 1485 
C 378 1050 570 787 941 704 
C 634 525 544 410 544 314 
C 538 224 627 96 781 -6 
C 77 -365 -282 -653 -294 -928 
C -307 -1325 230 -1645 851 -1645 
C 1466 -1645 2362 -1254 2362 -730 
C 2362 -454 2112 -198 1498 122 
C 1197 282 1037 397 1037 499 
C 1037 570 1088 640 1165 698 
C 1530 768 1818 928 1990 1069 
C 2221 1261 2477 1594 2477 2054 
C 2477 2221 2451 2323 2426 2406 
C 2496 2413 2541 2419 2592 2426 
C 2694 2451 2861 2528 3046 2726 
L 3002 2842 
z
M 1280 954 
C 1050 954 870 1152 870 1530 
C 870 1869 973 2163 1114 2362 
C 1222 2534 1389 2650 1574 2650 
C 1856 2650 2003 2394 2003 2029 
C 2003 1344 1619 954 1280 954 
z
M 1107 -1376 
C 659 -1376 243 -1139 243 -819 
C 243 -582 518 -326 947 -122 
C 1037 -166 1216 -269 1427 -390 
C 1722 -563 1894 -730 1894 -902 
C 1894 -1152 1587 -1376 1107 -1376 
z
" transform="scale(0.015625)"/>
     </defs>
     <use xlink:href="#MinionPro-It-3d5" transform="translate(0 0.59375)"/>
     <use xlink:href="#MinionPro-It-74" transform="translate(55.799988 -12.878125) scale(0.7)"/>
     <use xlink:href="#MinionPro-It-68" transform="translate(77.289986 -12.878125) scale(0.7)"/>
     <use xlink:href="#MinionPro-It-69" transform="translate(113.059979 -12.878125) scale(0.7)"/>
     <use xlink:href="#MinionPro-It-67" transform="translate(132.169971 -12.878125) scale(0.7)"/>
     <use xlink:href="#MinionPro-It-68" transform="translate(161.56996 -12.878125) scale(0.7)"/>
    </g>
   </g>
   <g id="text_2">
    <!-- $\phi_{knee}$ -->
    <g transform="translate(181.539434 89.114249) scale(0.11 -0.11)">
     <defs>
      <path id="MinionPro-It-6b" d="M 2797 634 
C 2637 448 2496 339 2432 339 
C 2362 339 2298 410 2176 646 
C 2029 928 1773 1504 1651 1901 
C 1837 2106 2189 2432 2490 2432 
C 2598 2432 2675 2406 2733 2381 
C 2758 2368 2797 2381 2835 2419 
C 2899 2483 2957 2592 2957 2675 
C 2957 2765 2867 2874 2694 2874 
C 2400 2874 1933 2464 1574 2093 
C 1389 1914 1222 1754 1024 1523 
L 1011 1523 
C 1229 2477 1440 3418 1658 4365 
C 1683 4493 1690 4557 1626 4557 
C 1542 4557 1203 4390 685 4333 
L 653 4173 
L 851 4173 
C 1101 4166 1133 4141 1082 3885 
C 806 2547 518 1261 211 -38 
L 250 -77 
C 390 -32 550 13 717 45 
C 781 410 864 781 934 1126 
C 998 1235 1126 1363 1293 1536 
C 1453 1082 1619 672 1779 346 
C 1939 0 2067 -77 2202 -77 
C 2336 -77 2605 32 2906 506 
L 2797 634 
z
" transform="scale(0.015625)"/>
      <path id="MinionPro-It-6e" d="M 3072 698 
C 2886 512 2714 403 2656 403 
C 2611 403 2605 461 2643 634 
C 2746 1075 2854 1523 2957 1958 
C 3149 2778 2970 2874 2810 2874 
C 2688 2874 2554 2829 2387 2726 
C 2118 2573 1645 2202 1210 1606 
L 1197 1606 
L 1331 2163 
C 1446 2656 1421 2874 1280 2874 
C 1101 2874 730 2637 378 2266 
L 467 2112 
C 627 2266 819 2400 877 2400 
C 915 2400 934 2349 890 2144 
C 730 1434 544 672 365 -26 
L 403 -70 
C 525 -26 698 19 864 51 
C 941 442 1037 819 1114 1133 
C 1434 1677 2176 2464 2458 2464 
C 2554 2464 2592 2374 2502 2010 
C 2394 1536 2285 1062 2170 589 
C 2048 96 2112 -77 2266 -77 
C 2432 -77 2790 128 3168 544 
L 3072 698 
z
" transform="scale(0.015625)"/>
      <path id="MinionPro-It-65" d="M 2234 794 
C 1907 480 1562 301 1293 301 
C 902 301 800 678 800 1024 
C 800 1082 800 1146 806 1229 
C 1427 1382 2496 1728 2496 2362 
C 2496 2630 2278 2874 1939 2874 
C 1664 2874 1325 2720 1056 2509 
C 550 2125 282 1453 282 858 
C 282 96 691 -77 992 -77 
C 1299 -77 1779 45 2336 646 
L 2234 794 
z
M 1702 2605 
C 1888 2605 2022 2477 2022 2259 
C 2022 1958 1747 1670 832 1421 
C 947 2138 1267 2432 1434 2534 
C 1504 2579 1606 2605 1702 2605 
z
" transform="scale(0.015625)"/>
     </defs>
     <use xlink:href="#MinionPro-It-3d5" transform="translate(0 0.59375)"/>
     <use xlink:href="#MinionPro-It-6b" transform="translate(55.799988 -12.878125) scale(0.7)"/>
     <use xlink:href="#MinionPro-It-6e" transform="translate(88.699977 -12.878125) scale(0.7)"/>
     <use xlink:href="#MinionPro-It-65" transform="translate(125.939975 -12.878125) scale(0.7)"/>
     <use xlink:href="#MinionPro-It-65" transform="translate(153.939964 -12.878125) scale(0.7)"/>
    </g>
   </g>
   <g id="text_3">
    <!-- $\phi_{hip}$ -->
    <g transform="translate(14.584688 73.75209) scale(0.11 -0.11)">
     <defs>
      <path id="MinionPro-It-70" d="M 1523 3283 
L 1466 3322 
C 1318 3232 1114 3091 998 2950 
L 928 2656 
C 710 2573 486 2464 314 2342 
L 358 2176 
C 499 2259 672 2342 877 2413 
C 640 1306 397 192 160 -928 
C 77 -1318 0 -1376 -397 -1453 
L -429 -1613 
L 1050 -1542 
L 1075 -1376 
L 915 -1363 
C 602 -1331 570 -1280 640 -909 
L 819 -13 
C 941 -64 1094 -77 1197 -77 
C 1606 26 2067 307 2387 666 
C 2752 1075 2931 1568 2931 1984 
C 2931 2554 2669 2874 2010 2874 
C 1837 2874 1594 2848 1414 2790 
L 1523 3283 
z
M 1357 2554 
C 1478 2579 1619 2598 1722 2598 
C 2093 2598 2394 2458 2394 1882 
C 2394 1069 1773 205 1318 205 
C 1158 205 992 320 915 422 
L 1357 2554 
z
" transform="scale(0.015625)"/>
     </defs>
     <use xlink:href="#MinionPro-It-3d5" transform="translate(0 0.59375)"/>
     <use xlink:href="#MinionPro-It-68" transform="translate(55.799988 -12.878125) scale(0.7)"/>
     <use xlink:href="#MinionPro-It-69" transform="translate(91.569981 -12.878125) scale(0.7)"/>
     <use xlink:href="#MinionPro-It-70" transform="translate(110.679973 -12.878125) scale(0.7)"/>
    </g>
   </g>
   <g id="text_4">
    <!-- $\phi_{ankle}$ -->
    <g transform="translate(143.393991 132.599901) scale(0.11 -0.11)">
     <defs>
      <path id="MinionPro-It-61" d="M 2906 742 
C 2714 557 2496 403 2438 403 
C 2406 403 2387 461 2426 678 
C 2573 1491 2765 2362 2867 2758 
L 2854 2784 
C 2784 2784 2694 2803 2611 2822 
C 2470 2854 2342 2874 2214 2874 
C 1811 2874 1344 2650 1018 2381 
C 550 1990 250 1286 250 640 
C 250 134 454 -77 621 -77 
C 794 -77 1005 38 1216 211 
C 1491 435 1798 742 2042 1094 
L 2061 1094 
L 1933 486 
C 1837 19 1920 -77 2042 -77 
C 2202 -77 2630 160 2982 589 
L 2906 742 
z
M 954 333 
C 858 333 781 467 781 755 
C 781 1389 1037 2138 1472 2458 
C 1587 2541 1760 2592 1933 2592 
C 2099 2592 2266 2547 2355 2502 
C 2317 2298 2221 1837 2144 1587 
C 1933 1139 1203 333 954 333 
z
" transform="scale(0.015625)"/>
      <path id="MinionPro-It-6c" d="M 1376 749 
C 1197 563 941 397 870 397 
C 832 397 806 435 845 621 
C 1107 1882 1370 3130 1632 4365 
C 1658 4499 1651 4557 1594 4557 
C 1510 4557 1146 4384 646 4333 
L 621 4173 
L 800 4173 
C 1088 4166 1126 4128 1062 3846 
C 845 2797 621 1747 397 698 
C 262 70 365 -77 493 -77 
C 691 -77 1146 211 1472 608 
L 1376 749 
z
" transform="scale(0.015625)"/>
     </defs>
     <use xlink:href="#MinionPro-It-3d5" transform="translate(0 0.59375)"/>
     <use xlink:href="#MinionPro-It-61" transform="translate(55.799988 -12.878125) scale(0.7)"/>
     <use xlink:href="#MinionPro-It-6e" transform="translate(90.099977 -12.878125) scale(0.7)"/>
     <use xlink:href="#MinionPro-It-6b" transform="translate(127.339975 -12.878125) scale(0.7)"/>
     <use xlink:href="#MinionPro-It-6c" transform="translate(160.239964 -12.878125) scale(0.7)"/>
     <use xlink:href="#MinionPro-It-65" transform="translate(177.66996 -12.878125) scale(0.7)"/>
    </g>
   </g>
  </g>
 </g>
 <defs>
  <clipPath id="p7da81ab4c8">
   <rect x="0" y="0" width="225.703457" height="154.55952"/>
  </clipPath>
 </defs>
</svg>
