<?xml version="1.0" encoding="utf-8" standalone="no"?>
<!DOCTYPE svg PUBLIC "-//W3C//DTD SVG 1.1//EN"
  "http://www.w3.org/Graphics/SVG/1.1/DTD/svg11.dtd">
<svg xmlns:xlink="http://www.w3.org/1999/xlink" width="225.857806pt" height="136.469661pt" viewBox="0 0 225.857806 136.469661" xmlns="http://www.w3.org/2000/svg" version="1.1">
 <metadata>
  <rdf:RDF xmlns:dc="http://purl.org/dc/elements/1.1/" xmlns:cc="http://creativecommons.org/ns#" xmlns:rdf="http://www.w3.org/1999/02/22-rdf-syntax-ns#">
   <cc:Work>
    <dc:type rdf:resource="http://purl.org/dc/dcmitype/StillImage"/>
    <dc:date>2026-04-08T10:29:27.907723</dc:date>
    <dc:format>image/svg+xml</dc:format>
    <dc:creator>
     <cc:Agent>
      <dc:title>Matplotlib v3.10.6, https://matplotlib.org/</dc:title>
     </cc:Agent>
    </dc:creator>
   </cc:Work>
  </rdf:RDF>
 </metadata>
 <defs>
  <style type="text/css">*{stroke-linejoin: round; stroke-linecap: butt}</style>
 </defs>
 <g id="figure_1">
  <g id="patch_1">
   <path d="M 0 136.469661 
L 225.857806 136.469661 
L 225.857806 -0 
L 0 -0 
z
" style="fill: #ffffff"/>
  </g>
  <g id="axes_1">
   <g id="patch_2">
    <path d="M 25.231454 100.351631 
L 225.857806 100.351631 
L 225.857806 0 
L 25.231454 0 
z
" style="fill: #ffffff"/>
   </g>
   <g id="matplotlib.axis_1">
    <g id="xtick_1">
     <g id="line2d_1">
      <path d="M 25.231454 100.351631 
L 25.231454 0 
" clip-path="url(#pbc26d8397d)" style="fill: none; stroke-dasharray: 3.7,1.6; stroke-dashoffset: 0; stroke: #cccccc"/>
     </g>
     <g id="line2d_2"/>
    </g>
    <g id="xtick_2">
     <g id="line2d_3">
      <path d="M 149.428719 100.351631 
L 149.428719 0 
" clip-path="url(#pbc26d8397d)" style="fill: none; stroke-dasharray: 3.7,1.6; stroke-dashoffset: 0; stroke: #cccccc"/>
     </g>
     <g id="line2d_4"/>
    </g>
    <g id="xtick_3">
     <g id="line2d_5">
      <path d="M 216.30417 100.351631 
L 216.30417 0 
" clip-path="url(#pbc26d8397d)" style="fill: none; stroke-dasharray: 3.7,1.6; stroke-dashoffset: 0; stroke: #cccccc"/>
     </g>
     <g id="line2d_6"/>
    </g>
   </g>
   <g id="matplotlib.axis_2"/>
   <g id="line2d_7">
    <path d="M 25.231454 4.363114 
L 26.187774 4.472411 
L 27.144094 4.8003 
L 28.100413 5.346781 
L 38.811196 13.056906 
L 147.449137 91.157078 
L 148.405457 91.500269 
L 149.361777 91.624867 
L 150.318097 91.530872 
L 151.274417 91.218284 
L 152.230737 90.687104 
L 153.378321 89.761145 
L 154.525904 88.520413 
L 155.864752 86.69809 
L 211.522571 7.095523 
L 212.670154 5.941354 
L 213.817738 5.101958 
L 214.774058 4.642913 
L 215.730378 4.402461 
L 216.30417 4.363114 
L 216.30417 4.363114 
" clip-path="url(#pbc26d8397d)" style="fill: none; stroke: #000000; stroke-linecap: square"/>
   </g>
   <g id="patch_3">
    <path d="M 25.231454 7.481087 
Q 25.231454 47.993758 25.231454 88.50643 
" style="fill: none; stroke: #000000; stroke-linecap: round"/>
    <path d="M 23.031454 11.881087 
L 25.231454 7.481087 
L 27.431454 11.881087 
" style="fill: none; stroke: #000000; stroke-linecap: round"/>
    <path d="M 27.431454 84.10643 
L 25.231454 88.50643 
L 23.031454 84.10643 
" style="fill: none; stroke: #000000; stroke-linecap: round"/>
   </g>
   <g id="text_1">
    <!-- CE/MTC length  -->
    <g transform="translate(7.81 83.50793) rotate(-90) scale(0.11 -0.11)">
     <defs>
      <path id="MyriadPro-Regular-43" d="M 3386 582 
C 3162 474 2816 403 2470 403 
C 1427 403 819 1075 819 2138 
C 819 3270 1491 3917 2502 3917 
C 2861 3917 3162 3840 3366 3738 
L 3507 4192 
C 3360 4269 3014 4384 2483 4384 
C 1146 4384 230 3475 230 2118 
C 230 698 1139 -70 2355 -70 
C 2880 -70 3296 32 3494 134 
L 3386 582 
z
" transform="scale(0.015625)"/>
      <path id="MyriadPro-Regular-45" d="M 2714 2483 
L 1043 2483 
L 1043 3846 
L 2816 3846 
L 2816 4314 
L 480 4314 
L 480 0 
L 2912 0 
L 2912 467 
L 1043 467 
L 1043 2022 
L 2714 2022 
L 2714 2483 
z
" transform="scale(0.015625)"/>
      <path id="MyriadPro-Regular-2f" d="M 422 -250 
L 2214 4390 
L 1773 4390 
L -6 -250 
L 422 -250 
z
" transform="scale(0.015625)"/>
      <path id="MyriadPro-Regular-4d" d="M 4224 0 
L 4774 0 
L 4506 4314 
L 3795 4314 
L 3027 2227 
C 2835 1683 2682 1210 2566 774 
L 2554 774 
C 2438 1222 2298 1696 2118 2227 
L 1382 4314 
L 672 4314 
L 371 0 
L 902 0 
L 1018 1850 
C 1056 2502 1088 3219 1101 3757 
L 1114 3757 
C 1235 3245 1402 2694 1606 2080 
L 2310 26 
L 2733 26 
L 3494 2118 
C 3712 2714 3885 3258 4038 3757 
L 4051 3757 
C 4051 3226 4090 2496 4122 1894 
L 4224 0 
z
" transform="scale(0.015625)"/>
      <path id="MyriadPro-Regular-54" d="M 1306 0 
L 1869 0 
L 1869 3840 
L 3187 3840 
L 3187 4314 
L -6 4314 
L -6 3840 
L 1306 3840 
L 1306 0 
z
" transform="scale(0.015625)"/>
      <path id="MyriadPro-Regular-20" transform="scale(0.015625)"/>
      <path id="MyriadPro-Regular-6c" d="M 467 0 
L 1030 0 
L 1030 4544 
L 467 4544 
L 467 0 
z
" transform="scale(0.015625)"/>
      <path id="MyriadPro-Regular-65" d="M 2957 1446 
C 2970 1510 2976 1594 2976 1709 
C 2976 2278 2714 3162 1696 3162 
C 794 3162 243 2432 243 1498 
C 243 563 813 -70 1766 -70 
C 2259 -70 2605 38 2803 128 
L 2701 531 
C 2496 442 2246 371 1843 371 
C 1274 371 794 685 781 1446 
L 2957 1446 
z
M 787 1850 
C 832 2240 1075 2758 1651 2758 
C 2285 2758 2438 2202 2432 1850 
L 787 1850 
z
" transform="scale(0.015625)"/>
      <path id="MyriadPro-Regular-6e" d="M 467 0 
L 1030 0 
L 1030 1862 
C 1030 1958 1043 2054 1069 2125 
C 1171 2438 1459 2701 1824 2701 
C 2355 2701 2541 2285 2541 1786 
L 2541 0 
L 3104 0 
L 3104 1843 
C 3104 2906 2438 3162 2010 3162 
C 1498 3162 1139 2874 986 2586 
L 973 2586 
L 941 3098 
L 442 3098 
C 461 2842 467 2586 467 2259 
L 467 0 
z
" transform="scale(0.015625)"/>
      <path id="MyriadPro-Regular-67" d="M 3117 2253 
C 3117 2624 3123 2880 3142 3098 
L 2643 3098 
L 2624 2630 
L 2611 2630 
C 2470 2886 2182 3162 1645 3162 
C 928 3162 243 2573 243 1523 
C 243 666 794 13 1562 13 
C 2042 13 2381 243 2547 531 
L 2560 531 
L 2560 192 
C 2560 -595 2138 -896 1562 -896 
C 1178 -896 858 -781 653 -646 
L 512 -1082 
C 762 -1248 1171 -1338 1542 -1338 
C 1933 -1338 2368 -1242 2675 -966 
C 2970 -691 3117 -262 3117 454 
L 3117 2253 
z
M 2554 1318 
C 2554 1222 2541 1114 2509 1018 
C 2394 659 2080 442 1728 442 
C 1126 442 813 947 813 1555 
C 813 2272 1197 2726 1734 2726 
C 2150 2726 2419 2458 2522 2125 
C 2547 2054 2554 1971 2554 1875 
L 2554 1318 
z
" transform="scale(0.015625)"/>
      <path id="MyriadPro-Regular-74" d="M 595 3674 
L 595 3098 
L 115 3098 
L 115 2669 
L 595 2669 
L 595 979 
C 595 614 659 339 813 166 
C 947 19 1158 -70 1421 -70 
C 1638 -70 1811 -32 1920 6 
L 1894 435 
C 1811 410 1722 397 1568 397 
C 1254 397 1146 614 1146 998 
L 1146 2669 
L 1952 2669 
L 1952 3098 
L 1146 3098 
L 1146 3840 
L 595 3674 
z
" transform="scale(0.015625)"/>
      <path id="MyriadPro-Regular-68" d="M 467 0 
L 1030 0 
L 1030 1869 
C 1030 1971 1037 2054 1069 2138 
C 1178 2438 1459 2694 1824 2694 
C 2355 2694 2541 2278 2541 1779 
L 2541 0 
L 3104 0 
L 3104 1843 
C 3104 2906 2438 3162 2022 3162 
C 1811 3162 1613 3104 1446 3008 
C 1274 2912 1133 2765 1043 2605 
L 1030 2605 
L 1030 4544 
L 467 4544 
L 467 0 
z
" transform="scale(0.015625)"/>
     </defs>
     <use xlink:href="#MyriadPro-Regular-43"/>
     <use xlink:href="#MyriadPro-Regular-45" transform="translate(57.999985 0)"/>
     <use xlink:href="#MyriadPro-Regular-2f" transform="translate(107.199982 0)"/>
     <use xlink:href="#MyriadPro-Regular-4d" transform="translate(141.499969 0)"/>
     <use xlink:href="#MyriadPro-Regular-54" transform="translate(221.899963 0)"/>
     <use xlink:href="#MyriadPro-Regular-43" transform="translate(271.59996 0)"/>
     <use xlink:href="#MyriadPro-Regular-20" transform="translate(329.599945 0)"/>
     <use xlink:href="#MyriadPro-Regular-6c" transform="translate(350.799942 0)"/>
     <use xlink:href="#MyriadPro-Regular-65" transform="translate(374.399933 0)"/>
     <use xlink:href="#MyriadPro-Regular-6e" transform="translate(424.499924 0)"/>
     <use xlink:href="#MyriadPro-Regular-67" transform="translate(479.999908 0)"/>
     <use xlink:href="#MyriadPro-Regular-74" transform="translate(535.899902 0)"/>
     <use xlink:href="#MyriadPro-Regular-68" transform="translate(568.999893 0)"/>
     <use xlink:href="#MyriadPro-Regular-20" transform="translate(624.499878 0)"/>
    </g>
    <!--  or joint excursion -->
    <g transform="translate(19.481687 88.958946) rotate(-90) scale(0.11 -0.11)">
     <defs>
      <path id="MyriadPro-Regular-6f" d="M 1779 3162 
C 928 3162 243 2554 243 1523 
C 243 544 896 -70 1728 -70 
C 2470 -70 3270 429 3270 1574 
C 3270 2515 2669 3162 1779 3162 
z
M 1766 2739 
C 2432 2739 2694 2080 2694 1555 
C 2694 858 2291 352 1754 352 
C 1203 352 819 864 819 1542 
C 819 2125 1107 2739 1766 2739 
z
" transform="scale(0.015625)"/>
      <path id="MyriadPro-Regular-72" d="M 467 0 
L 1030 0 
L 1030 1651 
C 1030 1741 1037 1837 1050 1914 
C 1126 2336 1408 2630 1805 2630 
C 1882 2630 1939 2630 1997 2618 
L 1997 3149 
C 1946 3155 1901 3162 1843 3162 
C 1466 3162 1120 2899 979 2483 
L 960 2483 
L 934 3098 
L 442 3098 
C 461 2810 467 2496 467 2131 
L 467 0 
z
" transform="scale(0.015625)"/>
      <path id="MyriadPro-Regular-6a" d="M -230 -1350 
C 70 -1350 480 -1248 730 -998 
C 1005 -717 1101 -326 1101 275 
L 1101 3098 
L 538 3098 
L 538 493 
C 538 -250 474 -493 320 -666 
C 186 -819 -32 -890 -294 -909 
L -230 -1350 
z
M 819 4320 
C 608 4320 467 4160 467 3968 
C 467 3782 602 3622 806 3622 
C 1037 3622 1165 3782 1165 3968 
C 1165 4160 1030 4320 819 4320 
z
" transform="scale(0.015625)"/>
      <path id="MyriadPro-Regular-69" d="M 1030 0 
L 1030 3098 
L 467 3098 
L 467 0 
L 1030 0 
z
M 749 4320 
C 538 4320 397 4160 397 3968 
C 397 3776 531 3622 736 3622 
C 960 3622 1094 3776 1094 3968 
C 1094 4166 954 4320 749 4320 
z
" transform="scale(0.015625)"/>
      <path id="MyriadPro-Regular-78" d="M 102 3098 
L 1152 1581 
L 51 0 
L 672 0 
L 1120 698 
C 1242 883 1344 1050 1446 1235 
L 1459 1235 
C 1568 1050 1670 877 1792 698 
L 2253 0 
L 2886 0 
L 1805 1600 
L 2861 3098 
L 2246 3098 
L 1818 2438 
C 1709 2272 1606 2112 1504 1933 
L 1491 1933 
C 1389 2106 1293 2259 1171 2432 
L 730 3098 
L 102 3098 
z
" transform="scale(0.015625)"/>
      <path id="MyriadPro-Regular-63" d="M 2579 531 
C 2419 461 2208 384 1888 384 
C 1274 384 813 826 813 1542 
C 813 2182 1197 2714 1907 2714 
C 2214 2714 2426 2637 2560 2566 
L 2688 2995 
C 2534 3078 2240 3162 1907 3162 
C 896 3162 243 2464 243 1510 
C 243 563 851 -70 1786 -70 
C 2202 -70 2528 38 2675 109 
L 2579 531 
z
" transform="scale(0.015625)"/>
      <path id="MyriadPro-Regular-75" d="M 3059 3098 
L 2496 3098 
L 2496 1203 
C 2496 1094 2477 992 2445 915 
C 2342 659 2080 397 1702 397 
C 1197 397 1011 800 1011 1389 
L 1011 3098 
L 448 3098 
L 448 1286 
C 448 205 1030 -70 1517 -70 
C 2067 -70 2400 256 2541 506 
L 2554 506 
L 2586 0 
L 3085 0 
C 3066 243 3059 525 3059 851 
L 3059 3098 
z
" transform="scale(0.015625)"/>
      <path id="MyriadPro-Regular-73" d="M 256 147 
C 474 19 787 -70 1126 -70 
C 1850 -70 2278 314 2278 864 
C 2278 1325 1997 1594 1466 1792 
C 1062 1952 883 2067 883 2323 
C 883 2554 1062 2746 1395 2746 
C 1683 2746 1907 2637 2029 2560 
L 2163 2970 
C 1997 3078 1722 3162 1408 3162 
C 749 3162 339 2752 339 2253 
C 339 1882 602 1581 1165 1376 
C 1574 1222 1734 1082 1734 813 
C 1734 550 1542 352 1139 352 
C 858 352 563 467 390 570 
L 256 147 
z
" transform="scale(0.015625)"/>
     </defs>
     <use xlink:href="#MyriadPro-Regular-20"/>
     <use xlink:href="#MyriadPro-Regular-6f" transform="translate(21.199997 0)"/>
     <use xlink:href="#MyriadPro-Regular-72" transform="translate(76.099991 0)"/>
     <use xlink:href="#MyriadPro-Regular-20" transform="translate(108.799988 0)"/>
     <use xlink:href="#MyriadPro-Regular-6a" transform="translate(129.999985 0)"/>
     <use xlink:href="#MyriadPro-Regular-6f" transform="translate(154.299973 0)"/>
     <use xlink:href="#MyriadPro-Regular-69" transform="translate(209.199966 0)"/>
     <use xlink:href="#MyriadPro-Regular-6e" transform="translate(232.59996 0)"/>
     <use xlink:href="#MyriadPro-Regular-74" transform="translate(288.099945 0)"/>
     <use xlink:href="#MyriadPro-Regular-20" transform="translate(321.199936 0)"/>
     <use xlink:href="#MyriadPro-Regular-65" transform="translate(342.399933 0)"/>
     <use xlink:href="#MyriadPro-Regular-78" transform="translate(392.499924 0)"/>
     <use xlink:href="#MyriadPro-Regular-63" transform="translate(438.799911 0)"/>
     <use xlink:href="#MyriadPro-Regular-75" transform="translate(483.599899 0)"/>
     <use xlink:href="#MyriadPro-Regular-72" transform="translate(538.69989 0)"/>
     <use xlink:href="#MyriadPro-Regular-73" transform="translate(571.399887 0)"/>
     <use xlink:href="#MyriadPro-Regular-69" transform="translate(610.999878 0)"/>
     <use xlink:href="#MyriadPro-Regular-6f" transform="translate(634.399872 0)"/>
     <use xlink:href="#MyriadPro-Regular-6e" transform="translate(689.299866 0)"/>
    </g>
   </g>
   <g id="patch_4">
    <path d="M 28.346923 95.988517 
Q 87.327502 95.988517 146.308082 95.988517 
" style="fill: none; stroke: #000000; stroke-linecap: round"/>
    <path d="M 32.746923 98.188517 
L 28.346923 95.988517 
L 32.746923 93.788517 
" style="fill: none; stroke: #000000; stroke-linecap: round"/>
    <path d="M 141.908082 93.788517 
L 146.308082 95.988517 
L 141.908082 98.188517 
" style="fill: none; stroke: #000000; stroke-linecap: round"/>
   </g>
   <g id="text_2">
    <!-- $T_{short}$ -->
    <g transform="translate(76.220087 106.896303) scale(0.11 -0.11)">
     <defs>
      <path id="MinionPro-It-54" d="M 4064 4314 
C 3949 4192 3898 4154 3725 4154 
L 1318 4154 
C 1146 4154 1075 4166 1011 4314 
L 877 4314 
C 800 3962 685 3546 570 3174 
L 762 3168 
C 877 3430 979 3629 1082 3750 
C 1197 3891 1318 3936 1862 3936 
L 2195 3936 
L 1587 768 
C 1491 256 1446 211 909 173 
L 870 0 
L 2611 0 
L 2650 173 
C 2074 211 2022 250 2118 768 
L 2714 3936 
L 3104 3936 
C 3597 3936 3725 3898 3789 3744 
C 3846 3610 3866 3418 3859 3174 
L 4058 3187 
C 4096 3533 4154 4026 4205 4314 
L 4064 4314 
z
" transform="scale(0.015625)"/>
      <path id="MinionPro-It-73" d="M 723 -77 
C 1242 -77 1882 403 1882 890 
C 1882 1165 1728 1350 1350 1638 
C 1114 1818 928 1978 928 2208 
C 928 2426 1088 2566 1274 2566 
C 1491 2566 1645 2438 1773 2278 
C 1811 2221 1856 2208 1914 2246 
C 2010 2310 2074 2406 2074 2515 
C 2074 2682 1856 2874 1581 2874 
C 1370 2874 1062 2733 864 2560 
C 608 2342 531 2131 531 1946 
C 531 1619 800 1382 1088 1165 
C 1395 928 1466 787 1466 627 
C 1466 422 1293 243 1037 243 
C 826 243 589 384 422 634 
C 390 678 346 691 262 653 
C 154 589 70 493 77 384 
C 77 160 422 -77 723 -77 
z
" transform="scale(0.015625)"/>
      <path id="MinionPro-It-68" d="M 2982 691 
C 2803 518 2598 397 2534 397 
C 2490 403 2477 448 2515 634 
L 2848 2061 
C 3008 2752 2835 2874 2675 2874 
C 2554 2874 2406 2829 2240 2739 
C 1952 2586 1478 2246 1056 1677 
L 1043 1677 
L 1613 4333 
C 1651 4506 1645 4557 1587 4557 
C 1504 4557 1158 4384 659 4333 
L 634 4173 
L 819 4166 
C 1069 4166 1101 4147 1037 3808 
C 781 2502 499 1210 224 -26 
L 269 -77 
C 410 -26 576 13 723 45 
C 781 352 896 922 966 1210 
C 1274 1766 2022 2483 2317 2483 
C 2419 2483 2451 2368 2368 2022 
L 2029 544 
C 1926 102 1971 -77 2138 -77 
C 2323 -77 2720 147 3059 538 
L 2982 691 
z
" transform="scale(0.015625)"/>
      <path id="MinionPro-It-6f" d="M 1139 -77 
C 1498 -77 1850 96 2125 326 
C 2573 698 2810 1325 2810 1875 
C 2810 2509 2490 2874 1965 2874 
C 1760 2874 1498 2790 1267 2662 
C 736 2387 294 1747 294 915 
C 294 403 531 -77 1139 -77 
z
M 1370 179 
C 1030 179 832 480 832 954 
C 832 1933 1261 2458 1510 2573 
C 1581 2605 1658 2624 1754 2624 
C 2048 2624 2272 2381 2272 1862 
C 2278 1043 1920 365 1581 218 
C 1510 192 1446 179 1370 179 
z
" transform="scale(0.015625)"/>
      <path id="MinionPro-It-72" d="M 1210 1811 
L 1280 2131 
C 1376 2579 1370 2874 1203 2874 
C 1030 2874 634 2605 307 2246 
L 397 2099 
C 582 2272 794 2406 851 2406 
C 896 2406 902 2342 864 2125 
C 742 1446 557 659 397 -26 
L 442 -70 
C 589 -26 762 19 896 45 
C 979 467 1056 864 1152 1293 
C 1274 1581 1472 1882 1613 2080 
C 1760 2285 1862 2355 1939 2355 
C 2010 2355 2080 2317 2150 2246 
C 2189 2214 2240 2208 2291 2246 
C 2355 2291 2419 2362 2464 2438 
C 2515 2522 2515 2630 2470 2707 
C 2413 2797 2304 2874 2195 2874 
C 1939 2874 1562 2438 1229 1811 
L 1210 1811 
z
" transform="scale(0.015625)"/>
      <path id="MinionPro-It-74" d="M 2163 2758 
L 1414 2758 
L 1645 3725 
L 1581 3763 
L 1101 3360 
L 954 2758 
L 563 2758 
L 403 2560 
L 422 2502 
L 896 2502 
L 525 768 
C 378 109 506 -77 653 -77 
C 992 -77 1478 352 1690 608 
L 1594 742 
C 1440 582 1133 371 1024 371 
C 954 371 915 442 986 755 
L 1357 2509 
L 1997 2534 
L 2163 2758 
z
" transform="scale(0.015625)"/>
     </defs>
     <use xlink:href="#MinionPro-It-54" transform="translate(0 0.59375)"/>
     <use xlink:href="#MinionPro-It-73" transform="translate(60.299988 -12.878125) scale(0.7)"/>
     <use xlink:href="#MinionPro-It-68" transform="translate(83.889986 -12.878125) scale(0.7)"/>
     <use xlink:href="#MinionPro-It-6f" transform="translate(119.659979 -12.878125) scale(0.7)"/>
     <use xlink:href="#MinionPro-It-72" transform="translate(152.559969 -12.878125) scale(0.7)"/>
     <use xlink:href="#MinionPro-It-74" transform="translate(178.179962 -12.878125) scale(0.7)"/>
    </g>
   </g>
   <g id="patch_5">
    <path d="M 152.542731 95.988517 
Q 182.864551 95.988517 213.186372 95.988517 
" style="fill: none; stroke: #000000; stroke-linecap: round"/>
    <path d="M 156.942731 98.188517 
L 152.542731 95.988517 
L 156.942731 93.788517 
" style="fill: none; stroke: #000000; stroke-linecap: round"/>
    <path d="M 208.786372 93.788517 
L 213.186372 95.988517 
L 208.786372 98.188517 
" style="fill: none; stroke: #000000; stroke-linecap: round"/>
   </g>
   <g id="text_3">
    <!-- $T_{length}$ -->
    <g transform="translate(170.106445 106.896303) scale(0.11 -0.11)">
     <defs>
      <path id="MinionPro-It-6c" d="M 1376 749 
C 1197 563 941 397 870 397 
C 832 397 806 435 845 621 
C 1107 1882 1370 3130 1632 4365 
C 1658 4499 1651 4557 1594 4557 
C 1510 4557 1146 4384 646 4333 
L 621 4173 
L 800 4173 
C 1088 4166 1126 4128 1062 3846 
C 845 2797 621 1747 397 698 
C 262 70 365 -77 493 -77 
C 691 -77 1146 211 1472 608 
L 1376 749 
z
" transform="scale(0.015625)"/>
      <path id="MinionPro-It-65" d="M 2234 794 
C 1907 480 1562 301 1293 301 
C 902 301 800 678 800 1024 
C 800 1082 800 1146 806 1229 
C 1427 1382 2496 1728 2496 2362 
C 2496 2630 2278 2874 1939 2874 
C 1664 2874 1325 2720 1056 2509 
C 550 2125 282 1453 282 858 
C 282 96 691 -77 992 -77 
C 1299 -77 1779 45 2336 646 
L 2234 794 
z
M 1702 2605 
C 1888 2605 2022 2477 2022 2259 
C 2022 1958 1747 1670 832 1421 
C 947 2138 1267 2432 1434 2534 
C 1504 2579 1606 2605 1702 2605 
z
" transform="scale(0.015625)"/>
      <path id="MinionPro-It-6e" d="M 3072 698 
C 2886 512 2714 403 2656 403 
C 2611 403 2605 461 2643 634 
C 2746 1075 2854 1523 2957 1958 
C 3149 2778 2970 2874 2810 2874 
C 2688 2874 2554 2829 2387 2726 
C 2118 2573 1645 2202 1210 1606 
L 1197 1606 
L 1331 2163 
C 1446 2656 1421 2874 1280 2874 
C 1101 2874 730 2637 378 2266 
L 467 2112 
C 627 2266 819 2400 877 2400 
C 915 2400 934 2349 890 2144 
C 730 1434 544 672 365 -26 
L 403 -70 
C 525 -26 698 19 864 51 
C 941 442 1037 819 1114 1133 
C 1434 1677 2176 2464 2458 2464 
C 2554 2464 2592 2374 2502 2010 
C 2394 1536 2285 1062 2170 589 
C 2048 96 2112 -77 2266 -77 
C 2432 -77 2790 128 3168 544 
L 3072 698 
z
" transform="scale(0.015625)"/>
      <path id="MinionPro-It-67" d="M 3002 2842 
C 2874 2771 2643 2701 2278 2694 
C 2138 2816 1939 2874 1734 2874 
C 1504 2874 1178 2765 915 2554 
C 589 2298 378 1901 378 1485 
C 378 1050 570 787 941 704 
C 634 525 544 410 544 314 
C 538 224 627 96 781 -6 
C 77 -365 -282 -653 -294 -928 
C -307 -1325 230 -1645 851 -1645 
C 1466 -1645 2362 -1254 2362 -730 
C 2362 -454 2112 -198 1498 122 
C 1197 282 1037 397 1037 499 
C 1037 570 1088 640 1165 698 
C 1530 768 1818 928 1990 1069 
C 2221 1261 2477 1594 2477 2054 
C 2477 2221 2451 2323 2426 2406 
C 2496 2413 2541 2419 2592 2426 
C 2694 2451 2861 2528 3046 2726 
L 3002 2842 
z
M 1280 954 
C 1050 954 870 1152 870 1530 
C 870 1869 973 2163 1114 2362 
C 1222 2534 1389 2650 1574 2650 
C 1856 2650 2003 2394 2003 2029 
C 2003 1344 1619 954 1280 954 
z
M 1107 -1376 
C 659 -1376 243 -1139 243 -819 
C 243 -582 518 -326 947 -122 
C 1037 -166 1216 -269 1427 -390 
C 1722 -563 1894 -730 1894 -902 
C 1894 -1152 1587 -1376 1107 -1376 
z
" transform="scale(0.015625)"/>
     </defs>
     <use xlink:href="#MinionPro-It-54" transform="translate(0 0.59375)"/>
     <use xlink:href="#MinionPro-It-6c" transform="translate(60.299988 -12.878125) scale(0.7)"/>
     <use xlink:href="#MinionPro-It-65" transform="translate(77.729984 -12.878125) scale(0.7)"/>
     <use xlink:href="#MinionPro-It-6e" transform="translate(105.729973 -12.878125) scale(0.7)"/>
     <use xlink:href="#MinionPro-It-67" transform="translate(142.969971 -12.878125) scale(0.7)"/>
     <use xlink:href="#MinionPro-It-74" transform="translate(172.36996 -12.878125) scale(0.7)"/>
     <use xlink:href="#MinionPro-It-68" transform="translate(193.859958 -12.878125) scale(0.7)"/>
    </g>
   </g>
   <g id="text_4">
    <!-- $\substack{\text{\normalsize Cycle} \\ \text{\normalsize frequency}} = \frac{1}{T_{short} + T_{length}}$ -->
    <g transform="translate(0.774146 129.320278) scale(0.11 -0.11)">
     <defs>
      <path id="MyriadPro-Regular-d" d="M 3386 590 
C 3162 480 2816 409 2470 409 
C 1427 409 819 1086 819 2156 
C 819 3297 1491 3948 2502 3948 
C 2861 3948 3162 3871 3366 3768 
L 3507 4224 
C 3360 4300 3014 4416 2483 4416 
C 1146 4416 230 3503 230 2137 
C 230 706 1139 -64 2355 -64 
C 2880 -64 3296 38 3494 140 
L 3386 590 
z
" transform="scale(0.015625)"/>
      <path id="MyriadPro-Regular-83" d="M 58 3072 
L 1197 217 
C 1229 147 1242 102 1242 70 
C 1242 38 1222 -7 1197 -65 
C 1062 -353 877 -570 723 -692 
C 557 -833 371 -922 230 -967 
L 371 -1434 
C 512 -1409 781 -1313 1062 -1076 
C 1446 -737 1722 -199 2125 863 
L 2970 3072 
L 2374 3072 
L 1760 1254 
C 1683 1030 1619 793 1562 607 
L 1549 607 
C 1498 793 1421 1036 1344 1241 
L 672 3072 
L 58 3072 
z
" transform="scale(0.015625)"/>
      <path id="MyriadPro-Regular-9a" d="M 2579 535 
C 2419 466 2208 390 1888 390 
C 1274 390 813 825 813 1532 
C 813 2163 1197 2687 1907 2687 
C 2214 2687 2426 2612 2560 2542 
L 2688 2969 
C 2534 3052 2240 3136 1907 3136 
C 896 3136 243 2441 243 1501 
C 243 567 851 -64 1786 -64 
C 2202 -64 2528 44 2675 115 
L 2579 535 
z
" transform="scale(0.015625)"/>
      <path id="MyriadPro-Regular-1b" d="M 467 0 
L 1030 0 
L 1030 4544 
L 467 4544 
L 467 0 
z
" transform="scale(0.015625)"/>
      <path id="MyriadPro-Regular-c3" d="M 2957 1452 
C 2970 1516 2976 1599 2976 1715 
C 2976 2269 2714 3136 1696 3136 
C 794 3136 243 2417 243 1503 
C 243 569 813 -64 1766 -64 
C 2259 -64 2605 44 2803 134 
L 2701 537 
C 2496 448 2246 377 1843 377 
C 1274 377 794 691 781 1452 
L 2957 1452 
z
M 787 1856 
C 832 2232 1075 2732 1651 2732 
C 2285 2732 2438 2195 2432 1856 
L 787 1856 
z
" transform="scale(0.015625)"/>
      <path id="MyriadPro-Regular-df" d="M 1082 0 
L 1082 2643 
L 1830 2643 
L 1830 3072 
L 1082 3072 
L 1082 3241 
C 1082 3730 1203 4153 1683 4153 
C 1850 4153 1958 4121 2042 4081 
L 2118 4518 
C 2010 4563 1843 4608 1638 4608 
C 1376 4608 1094 4524 883 4319 
C 627 4068 525 3664 525 3221 
L 525 3072 
L 96 3072 
L 96 2643 
L 525 2643 
L 525 0 
L 1082 0 
z
" transform="scale(0.015625)"/>
      <path id="MyriadPro-Regular-77" d="M 467 0 
L 1030 0 
L 1030 1635 
C 1030 1723 1037 1818 1050 1895 
C 1126 2313 1408 2604 1805 2604 
C 1882 2604 1939 2604 1997 2592 
L 1997 3123 
C 1946 3129 1901 3136 1843 3136 
C 1466 3136 1120 2873 979 2459 
L 960 2459 
L 934 3072 
L 442 3072 
C 461 2786 467 2475 467 2113 
L 467 0 
z
" transform="scale(0.015625)"/>
      <path id="MyriadPro-Regular-b9" d="M 3059 3072 
L 2496 3072 
L 2496 1200 
C 2496 1092 2477 991 2445 915 
C 2342 662 2080 403 1702 403 
C 1197 403 1011 801 1011 1383 
L 1011 3072 
L 448 3072 
L 448 1282 
C 448 211 1030 -64 1517 -64 
C 2067 -64 2400 262 2541 510 
L 2554 510 
L 2586 0 
L 3085 0 
C 3066 241 3059 520 3059 844 
L 3059 3072 
z
" transform="scale(0.015625)"/>
      <path id="MyriadPro-Regular-28" d="M 467 0 
L 1030 0 
L 1030 1844 
C 1030 1939 1043 2034 1069 2104 
C 1171 2415 1459 2675 1824 2675 
C 2355 2675 2541 2262 2541 1768 
L 2541 0 
L 3104 0 
L 3104 1825 
C 3104 2879 2438 3136 2010 3136 
C 1498 3136 1139 2847 986 2560 
L 973 2560 
L 941 3072 
L 442 3072 
C 461 2817 467 2564 467 2240 
L 467 0 
z
" transform="scale(0.015625)"/>
      <path id="MnSymbol12-0" d="M 2925 2336 
L 493 2336 
C 416 2336 346 2272 346 2188 
C 346 2112 416 2048 493 2048 
L 2925 2048 
C 3008 2048 3072 2112 3072 2188 
C 3072 2272 3008 2336 2925 2336 
z
M 2925 1216 
L 493 1216 
C 416 1216 346 1151 346 1068 
C 346 991 416 927 493 927 
L 2925 927 
C 3008 927 3072 991 3072 1068 
C 3072 1151 3008 1216 2925 1216 
z
" transform="scale(0.015625)"/>
      <path id="MinionPro-Regular-cf" d="M 1990 0 
L 1990 172 
L 1651 217 
C 1440 243 1408 300 1408 619 
L 1408 2880 
C 1037 2769 666 2684 256 2622 
L 256 2462 
L 646 2443 
C 870 2437 902 2379 902 2048 
L 902 619 
C 902 300 870 243 666 217 
L 320 172 
L 320 0 
L 1990 0 
z
" transform="scale(0.015625)"/>
      <path id="MinionPro-It-57" d="M 4064 4320 
C 3949 4198 3898 4160 3725 4160 
L 1318 4160 
C 1146 4160 1075 4172 1011 4320 
L 877 4320 
C 800 3967 685 3551 570 3179 
L 762 3173 
C 877 3436 979 3634 1082 3756 
C 1197 3897 1318 3942 1862 3942 
L 2195 3942 
L 1587 769 
C 1491 256 1446 211 909 172 
L 870 0 
L 2611 0 
L 2650 172 
C 2074 211 2022 249 2118 769 
L 2714 3942 
L 3104 3942 
C 3597 3942 3725 3904 3789 3750 
C 3846 3615 3866 3423 3859 3179 
L 4058 3192 
C 4096 3538 4154 4031 4205 4320 
L 4064 4320 
z
" transform="scale(0.015625)"/>
      <path id="MinionPro-It-23" d="M 723 -64 
C 1242 -64 1882 415 1882 900 
C 1882 1175 1728 1360 1350 1647 
C 1114 1825 928 1985 928 2215 
C 928 2432 1088 2572 1274 2572 
C 1491 2572 1645 2444 1773 2285 
C 1811 2228 1856 2215 1914 2253 
C 2010 2317 2074 2413 2074 2521 
C 2074 2687 1856 2880 1581 2880 
C 1370 2880 1062 2739 864 2566 
C 608 2349 531 2138 531 1953 
C 531 1628 800 1391 1088 1175 
C 1395 938 1466 798 1466 638 
C 1466 434 1293 256 1037 256 
C 826 256 589 396 422 645 
C 390 689 346 702 262 664 
C 154 600 70 504 77 396 
C 77 172 422 -64 723 -64 
z
" transform="scale(0.015625)"/>
      <path id="MinionPro-It-2a" d="M 2982 712 
C 2803 540 2598 419 2534 419 
C 2490 425 2477 470 2515 654 
L 2848 2072 
C 3008 2759 2835 2880 2675 2880 
C 2554 2880 2406 2835 2240 2746 
C 1952 2593 1478 2256 1056 1691 
L 1043 1691 
L 1613 4326 
C 1651 4494 1645 4544 1587 4544 
C 1504 4544 1158 4376 659 4326 
L 634 4160 
L 819 4160 
C 1069 4160 1101 4141 1037 3805 
C 781 2508 499 1225 224 0 
L 269 -52 
C 410 0 576 38 723 69 
C 781 374 896 939 966 1225 
C 1274 1778 2022 2489 2317 2489 
C 2419 2489 2451 2375 2368 2032 
L 2029 555 
C 1926 114 1971 -64 2138 -64 
C 2323 -64 2720 159 3059 549 
L 2982 712 
z
" transform="scale(0.015625)"/>
      <path id="MinionPro-It-a4" d="M 1139 -64 
C 1498 -64 1850 108 2125 338 
C 2573 709 2810 1334 2810 1883 
C 2810 2515 2490 2880 1965 2880 
C 1760 2880 1498 2796 1267 2668 
C 736 2394 294 1755 294 926 
C 294 415 531 -64 1139 -64 
z
M 1370 192 
C 1030 192 832 492 832 964 
C 832 1940 1261 2464 1510 2579 
C 1581 2611 1658 2630 1754 2630 
C 2048 2630 2272 2387 2272 1870 
C 2278 1053 1920 377 1581 230 
C 1510 204 1446 192 1370 192 
z
" transform="scale(0.015625)"/>
      <path id="MinionPro-It-10" d="M 1210 1824 
L 1280 2142 
C 1376 2587 1370 2880 1203 2880 
C 1030 2880 634 2612 307 2256 
L 397 2110 
C 582 2282 794 2415 851 2415 
C 896 2415 902 2352 864 2136 
C 742 1462 557 680 397 0 
L 442 -45 
C 589 0 762 44 896 69 
C 979 489 1056 883 1152 1309 
C 1274 1593 1472 1891 1613 2088 
C 1760 2291 1862 2361 1939 2361 
C 2010 2361 2080 2323 2150 2253 
C 2189 2220 2240 2214 2291 2252 
C 2355 2297 2419 2367 2464 2444 
C 2515 2527 2515 2636 2470 2713 
C 2413 2803 2304 2880 2195 2880 
C 1939 2880 1562 2447 1229 1824 
L 1210 1824 
z
" transform="scale(0.015625)"/>
      <path id="MinionPro-It-56" d="M 2163 2752 
L 1414 2752 
L 1645 3718 
L 1581 3756 
L 1101 3353 
L 954 2752 
L 563 2752 
L 403 2553 
L 422 2495 
L 896 2495 
L 525 774 
C 378 120 506 -64 653 -64 
C 992 -64 1478 361 1690 615 
L 1594 751 
C 1440 593 1133 384 1024 384 
C 954 384 915 453 986 764 
L 1357 2502 
L 1997 2527 
L 2163 2752 
z
" transform="scale(0.015625)"/>
      <path id="MnSymbol12-14" d="M 2022 262 
L 2022 1472 
L 3232 1472 
C 3309 1472 3373 1536 3373 1619 
C 3373 1696 3309 1760 3232 1760 
L 2022 1760 
L 2022 2969 
C 2022 3052 1958 3116 1875 3116 
C 1798 3116 1734 3052 1734 2969 
L 1734 1760 
L 525 1760 
C 442 1760 378 1696 378 1619 
C 378 1536 442 1472 525 1472 
L 1734 1472 
L 1734 262 
C 1734 185 1798 115 1875 115 
C 1958 115 2022 185 2022 262 
z
" transform="scale(0.015625)"/>
      <path id="MinionPro-It-64" d="M 1376 756 
C 1197 572 941 406 870 406 
C 832 406 806 444 845 629 
C 1107 1882 1370 3123 1632 4352 
C 1658 4486 1651 4544 1594 4544 
C 1510 4544 1146 4371 646 4320 
L 621 4160 
L 800 4160 
C 1088 4153 1126 4115 1062 3835 
C 845 2792 621 1748 397 705 
C 262 82 365 -64 493 -64 
C 691 -64 1146 222 1472 616 
L 1376 756 
z
" transform="scale(0.015625)"/>
      <path id="MinionPro-It-af" d="M 2234 805 
C 1907 492 1562 313 1293 313 
C 902 313 800 690 800 1034 
C 800 1092 800 1156 806 1238 
C 1427 1392 2496 1736 2496 2368 
C 2496 2636 2278 2880 1939 2880 
C 1664 2880 1325 2726 1056 2515 
C 550 2132 282 1462 282 868 
C 282 108 691 -64 992 -64 
C 1299 -64 1779 57 2336 658 
L 2234 805 
z
M 1702 2611 
C 1888 2611 2022 2483 2022 2266 
C 2022 1966 1747 1679 832 1430 
C 947 2145 1267 2438 1434 2540 
C 1504 2585 1606 2611 1702 2611 
z
" transform="scale(0.015625)"/>
      <path id="MinionPro-It-86" d="M 3072 718 
C 2886 534 2714 425 2656 425 
C 2611 425 2605 483 2643 654 
C 2746 1093 2854 1538 2957 1970 
C 3149 2784 2970 2880 2810 2880 
C 2688 2880 2554 2835 2387 2733 
C 2118 2581 1645 2212 1210 1621 
L 1197 1621 
L 1331 2174 
C 1446 2663 1421 2880 1280 2880 
C 1101 2880 730 2644 378 2275 
L 467 2123 
C 627 2275 819 2409 877 2409 
C 915 2409 934 2358 890 2155 
C 730 1449 544 692 365 0 
L 403 -45 
C 525 0 698 44 864 76 
C 941 464 1037 839 1114 1150 
C 1434 1689 2176 2470 2458 2470 
C 2554 2470 2592 2381 2502 2019 
C 2394 1545 2285 1072 2170 600 
C 2048 108 2112 -64 2266 -64 
C 2432 -64 2790 140 3168 555 
L 3072 718 
z
" transform="scale(0.015625)"/>
      <path id="MinionPro-It-17" d="M 3002 2867 
C 2874 2796 2643 2726 2278 2720 
C 2138 2822 1939 2880 1734 2880 
C 1504 2880 1178 2771 915 2560 
C 589 2304 378 1907 378 1491 
C 378 1056 570 793 941 710 
C 634 521 544 405 544 309 
C 538 219 627 90 781 -13 
C 77 -374 -282 -665 -295 -943 
C -307 -1344 230 -1664 851 -1664 
C 1466 -1664 2362 -1273 2362 -743 
C 2362 -465 2112 -206 1498 116 
C 1197 277 1037 392 1037 495 
C 1037 566 1088 637 1165 695 
C 1530 780 1818 941 1990 1083 
C 2221 1277 2477 1612 2477 2077 
C 2477 2245 2451 2348 2426 2432 
C 2496 2438 2541 2444 2592 2451 
C 2694 2485 2861 2562 3046 2763 
L 3002 2867 
z
M 1280 970 
C 1050 970 870 1171 870 1553 
C 870 1875 973 2169 1114 2368 
C 1222 2540 1389 2655 1574 2655 
C 1856 2655 2003 2400 2003 2035 
C 2003 1365 1619 970 1280 970 
z
M 1107 -1396 
C 659 -1396 243 -1156 243 -833 
C 243 -594 518 -335 947 -128 
C 1037 -174 1216 -277 1427 -400 
C 1722 -575 1894 -743 1894 -917 
C 1894 -1169 1587 -1396 1107 -1396 
z
" transform="scale(0.015625)"/>
     </defs>
     <use xlink:href="#MyriadPro-Regular-d" transform="translate(10.017427 50.141255) scale(0.099626)"/>
     <use xlink:href="#MyriadPro-Regular-83" transform="translate(15.596481 50.141255) scale(0.099626)"/>
     <use xlink:href="#MyriadPro-Regular-9a" transform="translate(20.189244 50.141255) scale(0.099626)"/>
     <use xlink:href="#MyriadPro-Regular-1b" transform="translate(24.652502 50.141255) scale(0.099626)"/>
     <use xlink:href="#MyriadPro-Regular-c3" transform="translate(27.003686 50.141255) scale(0.099626)"/>
     <use xlink:href="#MyriadPro-Regular-df" transform="translate(0 -4.359506) scale(0.099626)"/>
     <use xlink:href="#MyriadPro-Regular-77" transform="translate(2.909089 -4.359506) scale(0.099626)"/>
     <use xlink:href="#MyriadPro-Regular-c3" transform="translate(6.067229 -4.359506) scale(0.099626)"/>
     <use xlink:href="#MyriadPro-Regular-6c" transform="translate(11.058506 -4.359506) scale(0.099626)"/>
     <use xlink:href="#MyriadPro-Regular-b9" transform="translate(16.667462 -4.359506) scale(0.099626)"/>
     <use xlink:href="#MyriadPro-Regular-c3" transform="translate(22.156871 -4.359506) scale(0.099626)"/>
     <use xlink:href="#MyriadPro-Regular-28" transform="translate(27.148149 -4.359506) scale(0.099626)"/>
     <use xlink:href="#MyriadPro-Regular-9a" transform="translate(32.677417 -4.359506) scale(0.099626)"/>
     <use xlink:href="#MyriadPro-Regular-83" transform="translate(37.319996 -4.359506) scale(0.099626)"/>
     <use xlink:href="#MnSymbol12-0" transform="translate(66.093078 0) scale(0.996264)"/>
     <use xlink:href="#MinionPro-Regular-cf" transform="translate(321.605153 39.044349) scale(0.697382)"/>
     <use xlink:href="#MinionPro-It-57" transform="translate(146.008316 -32.589095) scale(0.697382)"/>
     <use xlink:href="#MinionPro-It-23" transform="translate(185.071622 -44.872059) scale(0.498132)"/>
     <use xlink:href="#MinionPro-It-2a" transform="translate(204.199918 -44.872059) scale(0.498132)"/>
     <use xlink:href="#MinionPro-It-a4" transform="translate(231.29825 -44.872059) scale(0.498132)"/>
     <use xlink:href="#MinionPro-It-10" transform="translate(255.706703 -44.872059) scale(0.498132)"/>
     <use xlink:href="#MinionPro-It-56" transform="translate(278.122674 -44.872059) scale(0.498132)"/>
     <use xlink:href="#MnSymbol12-14" transform="translate(295.955763 -32.589095) scale(0.697382)"/>
     <use xlink:href="#MinionPro-It-57" transform="translate(338.238305 -32.589095) scale(0.697382)"/>
     <use xlink:href="#MinionPro-It-64" transform="translate(378.796052 -44.872059) scale(0.498132)"/>
     <use xlink:href="#MinionPro-It-af" transform="translate(396.97784 -44.872059) scale(0.498132)"/>
     <use xlink:href="#MinionPro-It-86" transform="translate(420.389999 -44.872059) scale(0.498132)"/>
     <use xlink:href="#MinionPro-It-17" transform="translate(450.32772 -44.872059) scale(0.498132)"/>
     <use xlink:href="#MinionPro-It-56" transform="translate(476.47965 -44.872059) scale(0.498132)"/>
     <use xlink:href="#MinionPro-It-2a" transform="translate(494.860718 -44.872059) scale(0.498132)"/>
     <path d="M 144.613522 23.121242 
L 522.307749 23.121242 
L 522.307749 27.601967 
L 144.613522 27.601967 
L 144.613522 23.121242 
z
"/>
    </g>
   </g>
   <g id="text_5">
    <!-- $\text{\normalsize FTS} = \frac{T_{short}}{T_{short} + T_{length}}$ -->
    <g transform="translate(143.341787 128.234528) scale(0.11 -0.11)">
     <defs>
      <path id="MyriadPro-Regular-23" d="M 480 0 
L 1043 0 
L 1043 1920 
L 2669 1920 
L 2669 2380 
L 1043 2380 
L 1043 3820 
L 2803 3820 
L 2803 4288 
L 480 4288 
L 480 0 
z
" transform="scale(0.015625)"/>
      <path id="MyriadPro-Regular-5b" d="M 1306 0 
L 1869 0 
L 1869 3814 
L 3187 3814 
L 3187 4288 
L -7 4288 
L -7 3814 
L 1306 3814 
L 1306 0 
z
" transform="scale(0.015625)"/>
      <path id="MyriadPro-Regular-56" d="M 269 217 
C 499 64 954 -64 1370 -64 
C 2387 -64 2874 519 2874 1189 
C 2874 1827 2509 2182 1779 2466 
C 1184 2698 922 2897 922 3304 
C 922 3600 1146 3955 1734 3955 
C 2125 3955 2413 3832 2547 3748 
L 2701 4160 
C 2515 4313 2189 4416 1754 4416 
C 915 4416 358 3916 358 3239 
C 358 2633 794 2259 1498 2001 
C 2080 1782 2310 1544 2310 1144 
C 2310 706 1978 403 1408 403 
C 1024 403 666 525 416 686 
L 269 217 
z
" transform="scale(0.015625)"/>
     </defs>
     <use xlink:href="#MyriadPro-Regular-23" transform="scale(0.099626)"/>
     <use xlink:href="#MyriadPro-Regular-5b" transform="translate(4.851801 0) scale(0.099626)"/>
     <use xlink:href="#MyriadPro-Regular-56" transform="translate(9.743446 0) scale(0.099626)"/>
     <use xlink:href="#MnSymbol12-0" transform="translate(38.735707 0) scale(0.996264)"/>
     <use xlink:href="#MinionPro-It-57" transform="translate(231.826938 45.212487) scale(0.697382)"/>
     <use xlink:href="#MinionPro-It-23" transform="translate(270.890244 32.929523) scale(0.498132)"/>
     <use xlink:href="#MinionPro-It-2a" transform="translate(290.01854 32.929523) scale(0.498132)"/>
     <use xlink:href="#MinionPro-It-a4" transform="translate(317.116873 32.929523) scale(0.498132)"/>
     <use xlink:href="#MinionPro-It-10" transform="translate(341.525326 32.929523) scale(0.498132)"/>
     <use xlink:href="#MinionPro-It-56" transform="translate(363.941296 32.929523) scale(0.498132)"/>
     <use xlink:href="#MinionPro-It-57" transform="translate(118.650945 -32.589095) scale(0.697382)"/>
     <use xlink:href="#MinionPro-It-23" transform="translate(157.714251 -44.872059) scale(0.498132)"/>
     <use xlink:href="#MinionPro-It-2a" transform="translate(176.842547 -44.872059) scale(0.498132)"/>
     <use xlink:href="#MinionPro-It-a4" transform="translate(203.94088 -44.872059) scale(0.498132)"/>
     <use xlink:href="#MinionPro-It-10" transform="translate(228.349333 -44.872059) scale(0.498132)"/>
     <use xlink:href="#MinionPro-It-56" transform="translate(250.765303 -44.872059) scale(0.498132)"/>
     <use xlink:href="#MnSymbol12-14" transform="translate(268.598393 -32.589095) scale(0.697382)"/>
     <use xlink:href="#MinionPro-It-57" transform="translate(310.880934 -32.589095) scale(0.697382)"/>
     <use xlink:href="#MinionPro-It-64" transform="translate(351.438681 -44.872059) scale(0.498132)"/>
     <use xlink:href="#MinionPro-It-af" transform="translate(369.620469 -44.872059) scale(0.498132)"/>
     <use xlink:href="#MinionPro-It-86" transform="translate(393.032628 -44.872059) scale(0.498132)"/>
     <use xlink:href="#MinionPro-It-17" transform="translate(422.970349 -44.872059) scale(0.498132)"/>
     <use xlink:href="#MinionPro-It-56" transform="translate(449.122279 -44.872059) scale(0.498132)"/>
     <use xlink:href="#MinionPro-It-2a" transform="translate(467.503347 -44.872059) scale(0.498132)"/>
     <path d="M 117.256151 23.121242 
L 494.950378 23.121242 
L 494.950378 27.601967 
L 117.256151 27.601967 
L 117.256151 23.121242 
z
"/>
    </g>
   </g>
  </g>
 </g>
 <defs>
  <clipPath id="pbc26d8397d">
   <rect x="25.231454" y="0" width="200.626352" height="100.351631"/>
  </clipPath>
 </defs>
</svg>
