<?xml version="1.0" encoding="UTF-8" standalone="no"?>
<!-- Created with Inkscape (http://www.inkscape.org/) -->

<svg
   version="1.1"
   id="svg1"
   width="601.59937"
   height="208.95937"
   viewBox="0 0 601.59937 208.95937"
   sodipodi:docname="r_te_emg.svg"
   inkscape:version="1.4.3 (0d15f75042, 2025-12-25)"
   xmlns:inkscape="http://www.inkscape.org/namespaces/inkscape"
   xmlns:sodipodi="http://sodipodi.sourceforge.net/DTD/sodipodi-0.dtd"
   xmlns="http://www.w3.org/2000/svg"
   xmlns:svg="http://www.w3.org/2000/svg">
  <defs
     id="defs1">
    <clipPath
       clipPathUnits="userSpaceOnUse"
       id="clipPath4">
      <path
         d="M 43.062501,27.625001 H 224.09953 V 148.72734 H 43.062501 Z"
         id="path4" />
    </clipPath>
    <clipPath
       clipPathUnits="userSpaceOnUse"
       id="clipPath28">
      <path
         d="M 270.16251,27.625001 H 451.19953 V 148.72734 H 270.16251 Z"
         id="path28" />
    </clipPath>
  </defs>
  <sodipodi:namedview
     id="namedview1"
     pagecolor="#ffffff"
     bordercolor="#000000"
     borderopacity="0.25"
     inkscape:showpageshadow="2"
     inkscape:pageopacity="0.0"
     inkscape:pagecheckerboard="0"
     inkscape:deskcolor="#d1d1d1"
     inkscape:zoom="2.4767314"
     inkscape:cx="300.79968"
     inkscape:cy="104.57331"
     inkscape:window-width="2048"
     inkscape:window-height="1067"
     inkscape:window-x="0"
     inkscape:window-y="0"
     inkscape:window-maximized="1"
     inkscape:current-layer="g1">
    <inkscape:page
       x="0"
       y="0"
       inkscape:label="1"
       id="page1"
       width="601.59937"
       height="208.95937"
       margin="0"
       bleed="0" />
  </sodipodi:namedview>
  <g
     id="g1"
     inkscape:groupmode="layer"
     inkscape:label="1">
    <path
       id="path1"
       d="M 0,0 H 451.19952 V 156.71952 H 0 Z"
       style="fill:#ffffff;fill-opacity:1;fill-rule:nonzero;stroke:none"
       transform="matrix(1.3333333,0,0,-1.3333333,0,208.95936)" />
    <path
       id="path2"
       d="M 43.0625,27.625 H 224.09952 V 148.72733 H 43.0625 Z"
       style="fill:#ffffff;fill-opacity:1;fill-rule:nonzero;stroke:none"
       transform="matrix(1.3333333,0,0,-1.3333333,0,208.95936)" />
    <path
       id="path3"
       d="M 61.166202,27.625 V 148.72733"
       style="fill:none;stroke:#cccccc;stroke-width:1;stroke-linecap:butt;stroke-linejoin:round;stroke-miterlimit:10;stroke-dasharray:3.7, 1.6;stroke-dashoffset:0;stroke-opacity:1"
       transform="matrix(1.3333333,0,0,-1.3333333,0,208.95936)"
       clip-path="url(#clipPath4)" />
    <text
       id="text4"
       xml:space="preserve"
       transform="matrix(1.3333333,0,0,1.3333333,72.513269,187.20936)"><tspan
         id="tspan4"
         style="font-variant:normal;font-weight:normal;font-size:11px;font-family:'Myriad Pro';writing-mode:lr-tb;fill:#000000;fill-opacity:1;fill-rule:nonzero;stroke:none"
         x="0"
         y="0">0.2</tspan></text>
    <path
       id="path5"
       d="M 133.58101,27.625 V 148.72733"
       style="fill:none;stroke:#cccccc;stroke-width:1;stroke-linecap:butt;stroke-linejoin:round;stroke-miterlimit:10;stroke-dasharray:3.7, 1.6;stroke-dashoffset:0;stroke-opacity:1"
       transform="matrix(1.3333333,0,0,-1.3333333,0,208.95936)"
       clip-path="url(#clipPath4)" />
    <text
       id="text5"
       xml:space="preserve"
       transform="matrix(1.3333333,0,0,1.3333333,169.06635,187.20936)"><tspan
         id="tspan5"
         style="font-variant:normal;font-weight:normal;font-size:11px;font-family:'Myriad Pro';writing-mode:lr-tb;fill:#000000;fill-opacity:1;fill-rule:nonzero;stroke:none"
         x="0"
         y="0">1.0</tspan></text>
    <path
       id="path6"
       d="M 205.99582,27.625 V 148.72733"
       style="fill:none;stroke:#cccccc;stroke-width:1;stroke-linecap:butt;stroke-linejoin:round;stroke-miterlimit:10;stroke-dasharray:3.7, 1.6;stroke-dashoffset:0;stroke-opacity:1"
       transform="matrix(1.3333333,0,0,-1.3333333,0,208.95936)"
       clip-path="url(#clipPath4)" />
    <text
       id="text6"
       xml:space="preserve"
       transform="matrix(1.3333333,0,0,1.3333333,265.61942,187.20936)"><tspan
         id="tspan6"
         style="font-variant:normal;font-weight:normal;font-size:11px;font-family:'Myriad Pro';writing-mode:lr-tb;fill:#000000;fill-opacity:1;fill-rule:nonzero;stroke:none"
         x="0"
         y="0">1.8</tspan></text>
    <path
       id="path7"
       d="M 97.373606,27.625 V 148.72733"
       style="fill:none;stroke:#cccccc;stroke-width:1;stroke-linecap:butt;stroke-linejoin:round;stroke-miterlimit:10;stroke-dasharray:3.7, 1.6;stroke-dashoffset:0;stroke-opacity:1"
       transform="matrix(1.3333333,0,0,-1.3333333,0,208.95936)"
       clip-path="url(#clipPath4)" />
    <path
       id="path8"
       d="M 169.78841,27.625 V 148.72733"
       style="fill:none;stroke:#cccccc;stroke-width:1;stroke-linecap:butt;stroke-linejoin:round;stroke-miterlimit:10;stroke-dasharray:3.7, 1.6;stroke-dashoffset:0;stroke-opacity:1"
       transform="matrix(1.3333333,0,0,-1.3333333,0,208.95936)"
       clip-path="url(#clipPath4)" />
    <text
       id="text8"
       xml:space="preserve"
       transform="matrix(1.3333333,0,0,1.3333333,112.67051,205.85519)"><tspan
         id="tspan8"
         style="font-variant:normal;font-weight:normal;font-size:11px;font-family:'Myriad Pro';writing-mode:lr-tb;fill:#000000;fill-opacity:1;fill-rule:nonzero;stroke:none"
         x="0"
         y="0">Knee joint angle [rad]</tspan></text>
    <path
       id="path9"
       d="M 43.0625,27.625 H 224.09952"
       style="fill:none;stroke:#cccccc;stroke-width:1;stroke-linecap:butt;stroke-linejoin:round;stroke-miterlimit:10;stroke-dasharray:3.7, 1.6;stroke-dashoffset:0;stroke-opacity:1"
       transform="matrix(1.3333333,0,0,-1.3333333,0,208.95936)"
       clip-path="url(#clipPath4)" />
    <text
       id="text9"
       xml:space="preserve"
       transform="matrix(1.3333333,0,0,1.3333333,34.666667,177.33436)"><tspan
         id="tspan9"
         style="font-variant:normal;font-weight:normal;font-size:11px;font-family:'Myriad Pro';writing-mode:lr-tb;fill:#000000;fill-opacity:1;fill-rule:nonzero;stroke:none"
         x="0"
         y="0">0.0</tspan></text>
    <path
       id="path10"
       d="M 43.0625,78.615456 H 224.09952"
       style="fill:none;stroke:#cccccc;stroke-width:1;stroke-linecap:butt;stroke-linejoin:round;stroke-miterlimit:10;stroke-dasharray:3.7, 1.6;stroke-dashoffset:0;stroke-opacity:1"
       transform="matrix(1.3333333,0,0,-1.3333333,0,208.95936)"
       clip-path="url(#clipPath4)" />
    <text
       id="text10"
       xml:space="preserve"
       transform="matrix(1.3333333,0,0,1.3333333,34.666667,109.34709)"><tspan
         id="tspan10"
         style="font-variant:normal;font-weight:normal;font-size:11px;font-family:'Myriad Pro';writing-mode:lr-tb;fill:#000000;fill-opacity:1;fill-rule:nonzero;stroke:none"
         x="0"
         y="0">0.4</tspan></text>
    <path
       id="path11"
       d="M 43.0625,129.60591 H 224.09952"
       style="fill:none;stroke:#cccccc;stroke-width:1;stroke-linecap:butt;stroke-linejoin:round;stroke-miterlimit:10;stroke-dasharray:3.7, 1.6;stroke-dashoffset:0;stroke-opacity:1"
       transform="matrix(1.3333333,0,0,-1.3333333,0,208.95936)"
       clip-path="url(#clipPath4)" />
    <text
       id="text11"
       xml:space="preserve"
       transform="matrix(1.3333333,0,0,1.3333333,34.666667,41.359811)"><tspan
         id="tspan11"
         style="font-variant:normal;font-weight:normal;font-size:11px;font-family:'Myriad Pro';writing-mode:lr-tb;fill:#000000;fill-opacity:1;fill-rule:nonzero;stroke:none"
         x="0"
         y="0">0.8</tspan></text>
    <path
       id="path12"
       d="M 43.0625,53.120228 H 224.09952"
       style="fill:none;stroke:#cccccc;stroke-width:1;stroke-linecap:butt;stroke-linejoin:round;stroke-miterlimit:10;stroke-dasharray:3.7, 1.6;stroke-dashoffset:0;stroke-opacity:1"
       transform="matrix(1.3333333,0,0,-1.3333333,0,208.95936)"
       clip-path="url(#clipPath4)" />
    <path
       id="path13"
       d="M 43.0625,104.11068 H 224.09952"
       style="fill:none;stroke:#cccccc;stroke-width:1;stroke-linecap:butt;stroke-linejoin:round;stroke-miterlimit:10;stroke-dasharray:3.7, 1.6;stroke-dashoffset:0;stroke-opacity:1"
       transform="matrix(1.3333333,0,0,-1.3333333,0,208.95936)"
       clip-path="url(#clipPath4)" />
    <text
       id="text13"
       xml:space="preserve"
       transform="matrix(0,-1.3333333,1.3333333,0,6.8104167,118.0578)"><tspan
         id="tspan13"
         style="font-style:italic;font-variant:normal;font-weight:normal;font-size:7.7px;font-family:'Minion Pro';writing-mode:lr-tb;fill:#000000;fill-opacity:1;fill-rule:nonzero;stroke:none"
         x="0"
         y="0">EMG</tspan><tspan
         id="tspan14"
         style="font-style:italic;font-variant:normal;font-weight:normal;font-size:5.39px;font-family:'Minion Pro';writing-mode:lr-tb;fill:#000000;fill-opacity:1;fill-rule:nonzero;stroke:none"
         x="16.293201"
         y="1.036875">quad</tspan><tspan
         id="tspan15"
         style="font-style:italic;font-variant:normal;font-weight:normal;font-size:7.7px;font-family:'Minion Pro';writing-mode:lr-tb;fill:#000000;fill-opacity:1;fill-rule:nonzero;stroke:none"
         x="-1"
         y="12.559375">EMG</tspan><tspan
         id="tspan16"
         style="font-style:italic;font-variant:normal;font-weight:normal;font-size:5.39px;font-family:'Minion Pro';writing-mode:lr-tb;fill:#000000;fill-opacity:1;fill-rule:nonzero;stroke:none"
         x="15.80668"
         y="9.4049997">MVC</tspan><tspan
         id="tspan17"
         style="font-style:italic;font-variant:normal;font-weight:normal;font-size:5.39px;font-family:'Minion Pro';writing-mode:lr-tb;fill:#000000;fill-opacity:1;fill-rule:nonzero;stroke:none"
         x="15.2932"
         y="14.2875">quad</tspan><tspan
         id="tspan18"
         style="font-variant:normal;font-weight:normal;font-size:11px;font-family:'Myriad Pro';writing-mode:lr-tb;fill:#000000;fill-opacity:1;fill-rule:nonzero;stroke:none"
         x="29.137035"
         y="6.4389062"> [ ]</tspan></text>
    <path
       id="path18"
       d="M 0,1.7501562 H 28.762035 V 2.4376563 H 0 Z"
       style="fill:#000000;fill-opacity:1;fill-rule:nonzero;stroke:none"
       transform="matrix(0,-1.3333333,-1.3333333,0,16,119.39114)" />
    <path
       id="path19"
       d="m 205.99582,97.187217 -0.11051,6.736243 -0.54442,16.03151 -1.00727,5.0971 -0.97314,10.55142 -0.49061,1.93065 -0.34308,0.85611 -1.5702,2.40725 -0.21697,0.21465 -0.22216,-0.0463 -0.22564,-0.27394 -0.22679,-0.0853 -0.23374,0.0592 -1.50946,1.32481 -0.2696,-0.16708 -0.27019,-0.39403 -1.42614,-2.8995 -0.29623,-0.15253 -0.30142,0.0976 -0.30317,0.25037 -0.61443,0.80895 -0.6069,0.30436 -0.60401,0.22881 -0.3049,-0.14618 -0.60981,-0.79513 -0.60459,-0.49936 -0.60228,-0.88998 -0.30316,-0.0603 -0.30432,0.2113 -0.30142,0.50998 -0.9014,1.9492 -0.30258,0.23413 -0.30085,-0.14585 -0.30258,-0.58738 -0.60113,-2.06675 -0.90601,-3.90428 -0.30027,-0.81088 -0.29854,-0.45613 -0.30201,0.0607 -0.60054,0.68939 -0.59881,1.92843 -0.60054,1.69469 -0.59939,1.48492 -0.30084,0.79531 -0.29912,0.40795 -0.30027,-0.10917 -0.29738,-0.55969 -0.60054,-1.98212 -0.6017,-2.96627 -0.29969,-0.85906 -0.29738,-0.42457 -0.2997,0.061 -1.19934,1.77493 -0.60055,0.28622 -0.2991,0.0931 -0.30201,-0.10039 -0.30143,-0.40536 -0.30201,-0.86943 -0.59997,-3.06667 -1.20802,-6.69808 -0.29969,-1.18546 -0.60402,-1.09369 -1.50887,-1.46464 -0.59881,-0.70799 -1.20745,-0.74127 -0.302,0.12071 -0.30027,0.40004 -1.50714,3.09281 -0.29912,3.2e-4 -0.60286,-1.64642 -0.29911,-0.29735 -0.30142,0.2356 -0.60113,1.41046 -0.59996,1.63138 -0.60112,1.07133 -0.29738,0.0995 -0.30201,-0.18102 -0.6017,-1.00811 -0.59996,-1.33795 -1.50077,-2.58593 -0.60286,-0.55762 -0.5936,0.14014 -0.30143,-0.26442 -0.30432,-0.66171 -0.59707,-2.32513 -0.59996,-2.51564 -0.2997,-0.72674 -0.30374,-0.41366 -0.90313,-0.71618 -0.29853,-0.50619 -0.30201,-0.26772 -0.59938,0.18175 -0.60402,0.66066 -0.89907,0.35382 -0.30086,-0.009 -0.30201,-0.2053 -0.60459,-0.95433 -0.59938,-1.27457 -1.80742,-5.45873 -0.89675,-1.15079 -0.90603,-1.6729 -0.59938,-0.41698 -0.59938,-0.17622 -0.60113,-0.11182 -0.89734,-0.41221 -0.30027,0.26485 -0.90081,1.5401 -1.49962,4.14555 -0.90197,2.39723 -0.89792,3.68046 -0.90139,3.20885 -0.60054,1.72602 -0.30143,0.55484 -0.29853,0.31652 -0.29796,0.15327 -0.30317,-0.0653 -0.30258,-0.28324 -0.60343,-1.32023 -0.29566,-0.65771 -0.59996,-0.6758 -2.7059,-6.36792 -0.30143,-0.15463 -0.29738,0.0884 -0.29911,0.3381 -0.29911,0.52792 -0.29912,0.7647 -1.50309,5.48404 -0.30027,0.56732 -0.29796,0.28009 -0.29912,-0.087 -0.90254,-1.29906 -0.59939,-0.35109 -0.29969,-0.29959 -0.29911,-0.59184 -1.20051,-3.30046 -0.29969,-0.18414 -0.90197,0.73488 -0.29912,-0.0269 -0.30027,-0.51786 -0.30027,-0.98153 -1.19935,-5.63777 -0.30142,-0.8944 -0.30143,-0.48556 -0.59765,-0.15554 -0.59823,-0.0801 -0.30027,-0.201 -0.30258,-0.0535 -0.29796,0.30957 -0.2997,0.56261 -0.89849,2.83388 -0.60055,1.70473 -0.30085,0.41498 -0.29853,-0.003 -0.59823,-0.58345 -0.60054,-0.26696 -0.60228,-0.0624 -0.29911,0.25221 -0.89619,1.32634 -0.30258,0.19839 -0.89734,0.98541 -0.2997,-0.18386 -0.60054,-1.16381 -1.50077,-2.64733 -0.59881,-2.04821 -1.20166,-4.088194 -0.29854,-0.420317 -0.30027,0.01534 -0.89966,0.791021 -0.29853,-0.0883 -0.29912,-0.548258 -0.29911,-0.162052 -0.29911,0.343103 -0.89851,2.216307 -0.30027,0.0189 -0.59996,-0.26235 -0.59707,-0.2147 -1.20339,0.95764 -0.59534,-0.001 -0.30027,-0.14769 -0.29912,-0.71389 -0.90023,-2.84545 -0.59765,-0.540412 -0.90139,-0.512351 -0.30143,0.07906 -1.49557,1.66443 -0.301427,0.332882 -0.301431,0.09893 -0.597645,0.543991 -0.597074,0.18193 -0.302003,-0.12592 -0.303169,-0.4015 -0.89271,-2.018845 -0.60228,-0.516453 -0.598228,-0.478565 -0.299689,-0.230548 -2.395804,-0.496837 -0.299694,-0.400879 -0.599383,-1.788525 -0.898499,-3.033364 -0.599965,-1.163284 -0.2968,-0.213646 -0.300271,-0.04409 -0.60054,-0.657556 -1.496728,-2.440712 -0.6017,-1.023963 -0.604012,-1.639593 -0.895607,-2.945785 -0.900811,-1.921129 -1.798157,-5.446965 -0.598228,-1.402922 -0.599962,-0.991028 -0.597071,-1.95137 -1.201663,-4.503464 -0.595913,-1.081688 -1.200506,-3.689936 -0.898499,-1.258936 -0.302586,-0.281617 -0.298534,-0.0803 -0.300271,-0.34867 -1.197614,-2.598159 -0.602277,-0.78232 -0.598228,-0.338974 -0.300272,-0.412655 -0.599962,-1.603816 -0.598228,-1.692017 -2.681611,-5.198244 -0.283493,-0.08876 -0.551943,-0.733477 -0.538637,-0.740087 -0.77353,-0.518027 -0.724354,-0.559989 -0.46111,0.141784 -0.656083,0.278318 -0.413669,-0.234693 -0.955776,-0.969508 -0.515494,-0.06883 -1.308117,-1.022112 -0.246466,-0.135083 -0.322255,-0.467862 -0.733611,-1.477184 -0.403833,-0.0045 1.066859,0.14031 0.671706,1.129226 0.402096,0.159142 0.436811,-0.08615 0.482516,-0.213449 0.704683,-0.647733 0.375483,-0.384344 0.400362,-0.490232 1.301752,-0.669321 0.46921,-1.142911 0.992804,-3.482898 0.258036,-0.568829 0.536322,-0.478757 0.551365,-0.200992 1.155377,-0.256843 0.914121,-0.215154 2.849972,-0.117283 1.890144,0.139493 5.340658,0.160286 4.702513,-0.290563 1.882045,-0.422613 1.88378,-1.081701 0.942469,-0.196054 1.566154,-0.05558 4.699616,-0.01234 8.150709,-0.128814 8.47181,-0.462929 26.96711,0.07802 11.91422,-0.0828 11.91712,0.198416 4.70309,0.249286 5.01724,0.289223 1.25547,-0.0044 4.07478,0.149932 4.07651,0.06066 4.07477,0.397774 0.94364,0.436641 1.25373,0.920634 1.56674,1.455932 1.56904,1.840372 0.62773,1.559039 0.94074,3.543475 3.20983,13.423416 0.78047,3.550467 0.7394,1.952091 0.46747,1.340423 0.66245,3.912718 1.00785,7.217482 0.73072,5.621571 1.88551,11.825158 0.51029,4.51298 0.46921,8.479068 0.44491,9.60131 v 0"
       style="fill:none;stroke:#1f77b4;stroke-width:1;stroke-linecap:square;stroke-linejoin:round;stroke-miterlimit:10;stroke-dasharray:none;stroke-opacity:1"
       transform="matrix(1.3333333,0,0,-1.3333333,0,208.95936)" />
    <path
       id="path20"
       d="m 205.99408,111.47295 -0.0914,4.32763 -0.25398,2.46307 -0.18977,0.60087 -0.41194,-0.65271 -0.30027,1.22423 -0.58781,2.78505 -0.1319,-0.2102 -0.42351,-2.44113 -0.46748,-3.57963 -0.33961,-1.09793 -0.17472,-0.0965 -0.36276,0.23989 -0.37432,-0.37441 -0.59997,-0.7692 -0.41887,-0.30821 -0.6665,-1.19686 -1.20108,-4.42774 -0.77816,-2.8865 -0.8094,-3.14815 -0.56814,-1.02127 -0.58261,-0.22206 -0.29564,-0.42075 -1.21613,-2.907954 -1.50772,-2.031276 -0.60749,-0.24389 -0.30142,-0.09286 -0.29854,-0.337048 -0.30027,-0.835369 -0.60343,-2.254455 -2.10653,-4.99212 -0.30316,-0.113351 -0.30086,0.236868 -0.60111,0.789843 -0.30144,0.06585 -0.30084,-0.111243 -0.59939,-0.685722 -0.30201,-0.02132 -0.90138,0.868728 -1.20398,1.031455 -1.20919,1.862175 -0.29969,0.154311 -0.30259,0.0266 -0.91006,-0.668414 -0.29912,0.196691 -0.6017,1.477867 -0.90428,2.474458 -0.30028,0.0043 -0.30027,-0.368905 -0.90312,-2.039141 -0.59939,-0.667409 -0.29795,-0.147077 -0.30027,0.09394 -0.59765,1.106814 -1.79526,3.899178 -0.30086,-0.08695 -0.30027,-0.51496 -1.49788,-3.84015 -0.90371,-0.867314 -0.30085,0.19903 -0.59881,1.038003 -0.90312,1.837074 -0.29969,0.325625 -0.2997,0.103847 -0.30258,-0.210997 -0.60054,-0.849304 -0.2997,-0.0197 -0.30084,0.384684 -1.50484,3.028296 -0.60343,2.51299 -0.60111,3.160442 -0.60459,2.06892 -0.30086,0.4536 -0.59996,0.23316 -0.30316,-0.0256 -0.30317,-0.13907 -0.30258,-0.016 -0.29854,0.20415 -0.29912,0.39386 -0.30084,0.80086 -0.30085,1.17261 -0.30258,0.62434 -0.29912,0.0324 -0.30085,-0.0877 -0.30028,0.11177 -0.90023,1.17012 -0.30142,0.39225 -0.30086,0.12977 -0.59648,-0.13284 -0.60055,0.43734 -0.29969,-0.0419 -0.60112,-0.39715 -0.30144,-0.3457 -0.29795,-0.65424 -0.89734,-0.97374 -0.60343,-1.62882 -0.59591,-1.82683 -0.90314,-1.48797 -0.6017,-0.39651 -1.19934,-0.36747 -0.30258,-0.32421 -0.60228,-0.92574 -0.30028,-0.10828 -0.29911,0.35019 -0.60228,1.65763 -0.90139,3.38719 -0.29912,0.50069 -0.5988,0.26836 -0.30201,-0.0856 -0.30258,-0.35979 -0.59823,-1.06095 -0.30143,-0.17909 -0.30201,-0.3209 -0.89734,-1.69039 -0.30316,-0.18164 -0.30143,0.1011 -0.30201,0.39093 -0.29853,0.66143 -0.2968,0.25351 -0.30143,-0.11054 -0.60285,-0.45883 -0.30028,-0.0125 -0.29911,-0.13172 -0.59938,-1.06135 -0.90255,-1.74242 -0.30201,-0.29807 -0.29853,0.0865 -0.2968,0.46147 -0.30086,0.79345 -1.20339,4.18681 -0.30085,0.27146 -0.29795,-0.11423 -0.29796,-0.44788 -0.60113,-1.78906 -0.60169,-2.70389 -0.59881,-3.094732 -0.59765,-2.148362 -0.30316,-0.83004 -0.2997,-0.44165 -0.29911,-0.176563 -0.30085,0.106546 -0.59939,0.849519 -0.29795,0.120355 -0.30201,-0.1423 -0.60228,-1.553296 -0.29853,-0.243022 -0.30027,0.596122 -0.29912,1.095295 -0.30085,0.672207 -0.29969,0.1276 -0.30085,-0.145968 -0.5988,-0.511571 -0.30143,-0.164697 -0.29912,0.116368 -0.59938,0.69663 -0.30085,0.276562 -0.90023,1.522608 -0.59939,0.294792 -0.90139,-0.0625 -1.19761,0.647015 -1.5002,-0.943143 -0.2997,0.129781 -0.29795,0.253523 -0.30085,0.04129 -0.30143,-0.134334 -0.29969,0.0301 -0.59881,0.458105 -0.29911,0.08358 -0.29796,-0.287572 -0.60344,-1.677466 -0.89907,-3.16184 -0.2968,-0.416191 -1.79989,-0.0284 -0.59823,-0.388816 -0.90429,-0.900314 -0.29968,0.180422 -0.59823,1.178936 -1.50136,3.25994 -1.19935,1.879785 -0.59938,0.466317 -0.29969,-0.0711 -0.30027,-0.364589 -0.89735,-2.204859 -1.19761,-3.944095 -0.30259,-0.404595 -0.29853,-0.137243 -0.8985,-0.09657 -0.30143,-0.14825 -0.30027,0.102591 -0.59649,0.566566 -0.59881,0.394776 -0.30142,0.339838 -0.29912,0.05136 -0.59881,-0.972066 -1.2005,-2.813103 -0.59823,0.294593 -0.29854,-0.242971 -0.59996,-1.474744 -0.6017,-1.11172 -0.896762,-0.551472 -0.900814,-1.856923 -0.302586,-0.150022 -0.29622,0.211938 -0.59649,0.617122 -0.601703,-0.0107 -0.300266,0.172207 -0.298539,-0.01791 -0.89734,-0.469692 -0.899077,-0.345082 -1.19877,-0.629434 -1.49904,-1.334582 -0.599965,-1.160604 -1.198191,-3.450779 -0.599385,-0.674563 -0.301426,-0.323768 -0.299114,-0.498303 -0.598808,-1.926599 -0.904284,-2.658073 -0.595336,-0.815379 -1.199925,-1.103727 -0.299114,-0.587293 -0.598808,-2.162433 -1.201663,-5.20583 -1.195299,-2.827639 -0.601697,-1.037429 -1.494413,-2.115249 -1.497885,-1.834933 -0.599385,-1.441866 -0.599963,-1.516214 -0.600543,-0.84882 -0.59707,-0.660202 -1.49962,-2.177586 -0.300849,-0.295805 -0.300271,-0.05276 -0.299114,-0.204036 -0.897919,-1.003801 -0.298537,-0.190706 -1.198191,-2.141539 -0.59302,-1.641755 -1.120666,-3.334336 -0.535743,-0.397518 -0.260929,-0.495288 -0.508552,-1.785271 -0.484252,-2.08463 -0.466895,-0.815364 -0.878828,-0.83531 -0.991068,-0.746605 -2.745253,-0.453262 -0.527065,-0.04936 -0.584921,-0.03118 1.903453,0.09108 2.097269,-0.03327 2.131981,-0.666894 1.762285,-0.574557 1.392007,-0.06784 15.039007,-0.02855 15.048262,-0.432814 4.07709,0.0369 7.52472,0.03826 7.21171,-0.0369 5.33429,-2.92e-4 15.36647,-0.04362 4.69962,-0.02093 17.2462,0.145776 6.9016,-0.04379 9.09492,0.0024 5.01551,-0.04016 5.95624,0.209108 2.50863,0.309235 1.5702,0.719427 0.62484,0.527156 1.88263,1.900872 0.92453,0.916054 0.58029,0.49764 0.56294,0.188822 0.54615,0.80622 1.29482,3.120484 0.48599,1.689116 1.12529,5.128871 1.00321,7.733558 0.55253,5.936328 0.66997,7.985348 1.78196,16.583577 0.34307,4.499441 0.54096,14.801889 0.10356,7.08559 v 0"
       style="fill:none;stroke:#ff7f0e;stroke-width:1;stroke-linecap:square;stroke-linejoin:round;stroke-miterlimit:10;stroke-dasharray:none;stroke-opacity:1"
       transform="matrix(1.3333333,0,0,-1.3333333,0,208.95936)" />
    <path
       id="path21"
       d="m 205.9935,109.60743 -0.096,9.49253 -0.15448,2.29145 -0.37085,3.23332 -0.98991,13.36558 -0.25226,0.81959 -0.56061,0.14408 -0.30143,-0.3446 -0.32689,-0.4658 -0.16951,-0.0407 -0.35177,0.3645 -0.18513,-0.13306 -0.57856,-1.15824 -0.41078,-0.40931 -0.42466,-0.35583 -0.44433,-0.12953 -0.22448,0.20949 -0.70353,1.57004 -0.24357,0.0452 -0.50507,-0.15907 -0.52592,-0.0501 -0.26787,-0.51534 -0.55021,-2.34802 -0.86147,-3.81854 -1.51119,-4.80706 -0.60633,-1.32562 -0.90775,-1.61877 -0.30316,-0.18406 -0.60865,-0.74338 -0.60402,-1.2232 -1.20859,-2.87864 -0.6046,-2.49913 -0.59996,-2.54753 -0.30258,-0.83902 -0.2997,-0.35814 -0.30316,-0.0915 -0.60055,-0.58637 -0.60169,-0.81237 -0.89966,-0.86903 -0.60227,-0.83213 -0.59882,-1.35716 -0.59996,-1.93619 -0.59996,-2.5746 -0.30027,-0.83369 -0.30201,-0.41961 -0.30258,0.0252 -0.5965,0.61444 -0.90659,1.75866 -0.30259,-0.002 -0.29737,-0.23181 -0.60055,-0.93957 -0.30143,-0.8094 -1.20282,-4.365676 -0.5988,-0.861842 -0.30085,-0.135555 -0.30201,0.08897 -0.30143,0.377527 -2.10305,4.790926 -0.59824,0.74337 -0.59937,0.20297 -0.3026,0.40135 -0.30373,0.88766 -1.19762,4.93623 -0.30317,0.86513 -0.30199,0.5129 -0.2997,0.0118 -0.30143,-0.36462 -0.59939,-1.75515 -0.60228,-2.20694 -0.90197,-3.71341 -0.60285,-1.55811 -0.30142,-0.54151 -0.29854,-0.22174 -0.29911,0.0793 -0.30317,0.20284 -0.60054,0.85196 -0.59823,-2.6e-4 -0.60518,-0.22424 -0.59995,0.0108 -0.60286,-0.27245 -0.59649,-0.44195 -0.30258,0.0365 -0.60344,0.47539 -0.89792,0.89336 -0.60113,0.13143 -0.30142,0.2941 -0.59881,1.07849 -0.59765,1.23691 -0.60402,0.59683 -0.30199,0.0122 -0.59765,-0.49678 -0.6017,-0.67 -0.29796,-0.0862 -0.30027,0.0739 -0.30201,0.30402 -0.60286,1.45058 -0.89618,2.13816 -0.90486,2.30396 -0.29738,0.45019 -0.9014,0.16463 -0.30201,0.16008 -0.30199,-0.1067 -0.60055,-0.92624 -0.60054,-1.05961 -0.29912,0.0232 -0.60575,0.53509 -0.59881,1.07822 -0.59996,1.10184 -0.30142,0.0769 -0.29969,-0.278 -0.59997,-1.35729 -0.59939,-1.57375 -0.90138,-1.52654 -0.90082,-1.44322 -0.30258,0.26609 -0.29854,0.77033 -1.20051,5.36519 -0.30201,0.46064 -0.29737,-0.002 -0.29911,-0.53946 -0.90255,-2.69993 -0.29912,0.0847 -0.29853,0.6736 -1.2034,3.88136 -0.90081,1.93783 -0.29796,0.15006 -0.30143,-0.10862 -0.30084,-0.23088 -0.60344,-0.86499 -0.60054,-1.36472 -0.59707,-1.41758 -0.29911,-0.14798 -0.30201,0.20634 -0.60344,1.11534 -0.59649,1.10372 -0.30085,0.0648 -0.60285,-0.35739 -0.59881,0.13653 -0.59997,-0.0169 -0.29911,0.10929 -0.60054,-0.10005 -0.60112,0.29868 -0.30085,-0.44948 -0.89734,-1.97378 -0.60228,-0.81442 -0.59823,-1.07949 -0.59823,-0.72472 -0.30142,-0.0679 -0.59997,0.36665 -0.29969,-0.0257 -0.30027,-0.33444 -0.89908,-2.40169 -1.20513,-3.15335 -0.29854,-0.23998 -0.29738,0.0572 -0.59996,0.87552 -0.90023,-0.1749 -0.59881,0.62573 -0.60054,0.90293 -0.90082,-0.21278 -0.29853,0.18398 -0.29912,0.43201 -0.29911,0.74107 -0.60459,2.3788 -0.89619,5.46912 -0.59938,3.51436 -0.60228,2.53445 -0.89792,2.49583 -0.30027,0.57496 -0.29796,-0.0576 -0.30143,-0.65472 -0.60169,-2.87745 -0.8985,-4.57107 -0.2997,-1.04021 -0.30142,-0.41591 -0.30201,0.18941 -0.59765,0.75709 -0.30085,-0.0368 -0.29853,-0.34486 -0.59881,-1.38406 -0.60112,-1.51578 -0.59823,-1.36772 -0.29912,-0.61585 -0.29737,-0.003 -0.30258,0.48696 -1.49905,3.52235 -0.29795,0.15717 -0.59997,-0.28534 -0.90139,-0.63722 -0.29738,0.21016 -0.59938,0.68742 -0.2997,0.063 -0.59938,-0.49026 -0.30027,-0.41165 -0.59708,-1.45449 -0.60169,-1.35947 -0.30143,-0.0622 -0.29969,0.17273 -1.19704,1.83456 -0.30085,-0.0934 -0.901391,-1.00421 -0.295059,-0.13719 -0.297957,0.0647 -0.906021,0.7318 -0.593598,0.60229 -0.299117,0.0125 -0.300849,-0.25982 -0.300849,-0.49795 -0.299694,-0.17649 -0.300271,0.0824 -0.299694,0.29127 -0.297957,0.13325 -0.598805,-0.55123 -0.298534,-0.47528 -0.900814,-2.0749 -0.898497,-1.4871 -0.900814,-1.63573 -0.598228,-1.04635 -0.598228,-2.04577 -0.60112,-3.024535 -0.900234,-6.452718 -1.49962,-10.975646 -0.602857,-3.493389 -0.895605,-3.398714 -0.60112,-1.449467 -0.599385,-0.750935 -0.594756,-0.174705 -0.603435,-0.530662 -0.599385,-1.316784 -0.897342,-2.754201 -0.598808,-1.86712 -0.599963,-0.968312 -0.597648,-0.894035 -0.598228,-0.397924 -0.300272,-0.670555 -0.60112,-2.444027 -0.896184,-3.730795 -0.601123,-1.449485 -1.198768,-2.352333 -0.598228,-1.810081 -0.6017,-1.774193 -0.299692,-0.297152 -0.299694,-0.07459 -1.197033,-1.385953 -0.599963,-0.4157 -0.299114,-0.515455 -0.897922,-2.561893 -0.595913,-1.575744 -0.58087,-0.975993 -0.55715,-0.325001 -0.270764,-0.166675 -0.26903,-0.308314 -0.52475,-1.226543 -0.505081,-2.204422 -0.481939,-2.176052 -0.23605,-0.4593 -0.229109,-0.148334 -1.079586,-2.177977 -0.402676,-0.248233 -0.745761,-0.193485 -0.510866,-0.583268 -0.618476,-0.32148 -0.416561,-0.117056 -1.004953,-0.867882 -0.891557,-0.04343 1.80799,0.09401 3.048416,-0.08913 1.823613,-0.409863 1.831132,-1.01677 1.75187,-0.127926 2.517879,-0.156013 12.5732,-0.0728 5.329088,-0.06315 15.35837,0.06247 5.95682,-1.96e-4 8.15707,0.116673 8.77902,-0.032 3.76468,-0.04422 7.52065,0.01598 9.09434,-0.03249 6.27329,-0.04495 15.99074,-0.02211 7.2123,-0.02288 5.64671,0.147962 1.25141,0.341643 2.19389,0.691592 1.56846,0.333827 0.94248,0.30744 0.31184,0.0049 0.31416,0.154998 0.62889,0.744056 0.62715,1.400278 0.62658,2.332057 1.88031,9.011366 0.60922,1.682804 0.85685,1.783521 0.55483,1.002109 0.53922,0.794573 3.61887,6.973575 0.54963,2.455959 0.33903,2.103507 0.92453,6.565045 0.27019,0.950011 0.12786,0.133628 0.86032,2.639301 0.24704,0.654797 0.14406,0.09231 0.12381,0.653142 0.15158,2.10792 0.15853,6.024983 0.0434,4.515256 v 0"
       style="fill:none;stroke:#2ca02c;stroke-width:1;stroke-linecap:square;stroke-linejoin:round;stroke-miterlimit:10;stroke-dasharray:none;stroke-opacity:1"
       transform="matrix(1.3333333,0,0,-1.3333333,0,208.95936)" />
    <path
       id="path22"
       d="m 205.9883,85.593796 -0.10588,3.324079 -0.33383,3.249473 -0.0659,0.01347 -0.14522,0.93038 -0.65261,5.85965 -0.22912,-0.574803 -0.24761,-1.572456 -1.00901,-7.837251 -0.49293,-1.162087 -0.35061,-0.602781 -0.1834,0.06535 -0.57393,1.145469 -0.41251,0.730485 -0.42871,0.158346 -0.22217,-0.175029 -0.22389,-0.414846 -0.22796,-0.100424 -0.23316,0.13594 -0.47962,0.45907 -0.24763,-0.03996 -1.03214,-0.864536 -0.53921,-0.09274 -0.56179,-0.641772 -0.28812,-0.464864 -1.19124,-2.79196 -0.3049,-0.405409 -0.30548,-0.217049 -0.30143,0.191823 -0.60748,1.552363 -0.90544,1.736559 -0.30375,0.290626 -0.30374,-0.05557 -1.20108,-1.034538 -0.30433,-0.04515 -1.20281,0.317435 -0.6046,-0.462175 -1.50598,-2.515513 -0.59938,-1.095477 -0.90256,-1.059392 -0.60054,-0.771057 -0.59996,-0.554491 -0.90429,-0.735302 -0.30142,-0.172564 -0.30258,0.08177 -0.3026,-0.159592 -0.29853,-0.43922 -0.29853,-0.219351 -0.60576,0.05731 -0.30373,0.302557 -0.89734,1.901959 -1.50194,4.400287 -0.89908,1.691188 -0.60111,0.685841 -0.30086,0.373194 -0.29853,0.06716 -0.59823,-0.120328 -0.30028,0.29042 -0.90254,2.04901 -0.59765,1.229544 -1.20513,1.666782 -0.59823,0.456645 -0.90139,0.01468 -0.30317,0.377138 -0.29854,0.94459 -0.5988,3.803549 -0.60401,3.278599 -1.20456,4.85743 -0.89908,2.46287 -0.60228,1.57722 -0.60111,1.78359 -0.30027,0.27102 -0.30027,-0.13922 -0.2997,-0.005 -0.30432,0.52085 -1.50656,4.00387 -0.59534,0.69617 -0.60459,0.30392 -0.30316,0.11681 -0.30027,0.51301 -0.29623,1.14852 -1.80046,10.45286 -0.29912,0.57646 -0.29969,0.31137 -0.30143,0.55573 -0.6017,2.11325 -1.19992,4.30983 -0.59997,1.78385 -1.19877,2.59672 -0.30027,0.38414 -0.60401,0.0131 -1.19877,0.35862 -0.6017,-0.57548 -0.9037,-0.31768 -0.59997,-0.007 -0.30085,-0.27733 -0.2997,-0.73659 -0.60459,-2.7931 -0.59938,-3.7736 -0.59996,-2.26176 -0.30086,-0.47517 -0.30027,0.0383 -1.19935,1.93211 -0.29969,0.27872 -0.30085,0.0231 -0.59996,-0.61821 -1.20282,-1.82829 -0.29622,-0.18246 -0.30201,0.0945 -0.60343,0.41467 -0.89734,-0.10351 -0.30027,-0.40694 -1.50194,-3.54892 -1.8022,-7.63708 -0.29912,-0.64113 -0.59938,-0.44215 -0.30316,-0.61019 -0.60286,-2.1823 -0.59534,-2.64272 -0.29911,-0.42793 -0.60459,0.39192 -0.30143,-0.32774 -0.59765,-2.17346 -0.90023,-3.30221 -0.6017,-1.51654 -0.30085,-0.3806 -0.29911,-0.11891 -0.29854,0.0392 -0.29911,-0.0957 -0.29912,-0.58307 -0.60401,-2.33596 -1.19819,-5.664574 -0.29969,-0.135395 -0.60228,0.499856 -0.29969,-0.04269 -0.29796,-0.338184 -0.29854,-0.590312 -1.20224,-3.872095 -0.59938,-0.568996 -0.30143,-0.236319 -0.30027,-0.0099 -0.29622,0.15693 -0.30085,0.3301 -0.60344,1.30376 -0.302,0.180647 -0.89388,-0.09502 -0.302,0.287014 -0.89908,2.286938 -0.59881,1.541903 -1.50135,2.394517 -1.79931,4.95969 -1.1953,2.23839 -0.60633,1.94239 -1.19414,4.95399 -0.60286,1.48492 -0.30027,0.3497 -0.29969,-0.0219 -0.30027,-0.53225 -0.29854,-0.89934 -0.59938,-0.98434 -0.30143,-0.2641 -0.30085,0.015 -0.59996,0.47398 -0.59939,-0.0336 -0.29911,-0.23415 -0.90024,-1.5595 -0.5988,-0.89284 -0.59765,-0.62838 -1.19935,-1.7645 -0.30143,0.01 -0.59649,0.66434 -0.29969,-0.0656 -0.60228,-0.45803 -0.30085,-0.004 -0.59649,0.24171 -0.59939,-0.36662 -0.30027,0.0987 -0.29969,0.47306 -1.19703,3.3166 -0.30086,0.24351 -0.30026,0.0246 -0.60171,-0.49664 -0.29622,0.12111 -0.60054,0.62306 -0.30027,0.0389 -0.601697,-1.16835 -0.600543,-1.83016 -0.594181,-1.76271 -0.904861,-1.52444 -0.595913,-2.17848 -0.900814,-3.48738 -0.599383,-1.16145 -0.897922,-1.096593 -0.598806,-0.615155 -0.598228,-0.331027 -0.300848,-0.433476 -1.197034,-2.590144 -0.300271,-0.04952 -0.300852,0.151314 -0.299114,-0.07701 -0.300268,-0.334917 -0.299694,-0.61884 -0.598228,-2.087649 -0.599963,-2.894642 -2.996924,-17.193024 -0.900814,-3.531575 -0.597071,-1.51054 -0.300849,-0.393162 -0.299114,-0.06278 -0.299114,0.312874 -0.301428,0.04292 L 83.220834,67.322489 80.823873,64.334883 79.023982,63.727194 78.425174,63.266951 77.826368,62.992087 77.226406,62.114 76.326169,60.751797 75.727944,59.801643 75.129136,58.784711 74.527436,58.345974 74.229479,57.75686 73.92863,56.715238 72.731017,50.78993 72.132211,49.063227 71.532826,47.816975 70.933441,46.276586 70.338686,45.435401 67.640296,44.119255 67.161251,43.996031 66.698406,43.44615 65.622289,41.339849 65.035633,40.749805 64.482533,39.513437 63.974559,37.82434 63.361867,35.095548 63.078954,34.864709 62.823809,34.76044 62.349393,34.348437 61.634297,34.192147 61.44453,33.43071 l -0.359863,-3.087395 0.0943,-0.671744 0.20423,-0.150564 0.748654,-0.03781 1.066281,-0.05382 3.676728,0.01132 1.201084,-9.74e-4 3.965429,-0.262002 1.589875,-0.149241 11.318308,-0.0049 5.327353,0.03862 3.140982,-0.0061 4.069569,-0.03662 3.13347,-0.0026 6.58629,-0.0056 6.27098,-0.04185 7.21577,-0.01557 8.77727,0.06104 5.33198,-0.01633 8.78076,0.01269 10.0316,0.208123 3.76292,0.0116 5.64384,0.02336 4.07652,-0.04791 9.09433,0.01712 1.57136,-0.03458 4.07536,0.223872 1.56904,0.466794 0.93842,0.755902 0.94246,0.722055 0.62541,0.438035 3.76468,3.881424 0.62542,0.75645 0.31358,0.197892 0.31358,0.415367 2.50862,4.92149 0.9442,1.121882 0.62484,1.358837 0.62715,1.662476 0.61965,2.372542 0.58722,3.186084 1.91851,12.896836 1.23001,9.310785 1.31332,7.285928 0.60229,3.727199 1.23983,11.887483 0.46517,3.808414 0.2858,1.32905 0.51666,1.10603 0.44028,2.11521 0.28233,3.29767 0.5045,8.51805 0.32863,9.72233 v 0"
       style="fill:none;stroke:#d62728;stroke-width:1;stroke-linecap:square;stroke-linejoin:round;stroke-miterlimit:10;stroke-dasharray:none;stroke-opacity:1"
       transform="matrix(1.3333333,0,0,-1.3333333,0,208.95936)" />
    <path
       id="path23"
       d="m 205.97152,126.67502 -0.11629,4.85641 -0.11629,-0.58847 -0.048,0.0632 -0.1134,-0.0331 -0.20424,-0.63338 -0.24936,0.64671 -0.092,0.0783 -0.40151,0.91213 -0.34424,-0.44412 -0.39284,0.58191 -0.43739,0.26254 -0.15216,-0.10861 -0.31994,-1.19903 -0.51492,-3.08929 -0.55194,-4.26688 -0.59707,-4.61451 -1.53781,-7.3003 -0.23663,-0.72137 -0.24299,-0.13363 -0.75212,0.13759 -0.2592,-0.51188 -0.53169,-2.54923 -0.55137,-2.266 -0.56872,-1.28897 -0.58666,-0.74523 -0.30201,-5.8e-4 -0.30258,0.41366 -0.30722,0.75816 -0.60805,2.77252 -0.60634,2.87925 -0.60516,1.28474 -0.30433,0.28664 -0.30547,0.0199 -1.20861,-2.40358 -2.11404,-4.04821 -0.60749,-0.63531 -0.30085,-0.0376 -0.30027,0.22314 -0.60517,1.27216 -0.30085,-0.0631 -0.30085,-0.46885 -0.60344,-1.67864 -0.90428,-2.5996 -0.29911,-0.64474 -0.30201,-0.31051 -0.30432,0.006 -0.59997,0.62584 -0.90601,1.40605 -0.59534,-0.15193 -0.302,0.45161 -0.60286,1.85108 -0.59303,1.92159 -0.2991,0.24319 -0.29912,-0.0139 -0.2997,-0.16219 -1.19413,-2.14197 -0.29623,-0.0133 -0.30027,0.49116 -0.89908,2.17636 -0.29621,0.31068 -0.30027,0.11057 -0.89966,0.76699 -0.30027,0.41778 -0.60113,1.26641 -0.89965,0.94672 -0.60806,0.0551 -0.59765,0.12279 -0.30027,0.0587 -0.3026,-0.31657 -0.60574,-1.14369 -0.30085,-0.3367 -0.30143,0.135 -0.60054,1.27672 -0.60285,1.58002 -0.30259,0.39824 -0.29911,0.15972 -0.90429,-0.0216 -0.30201,0.31598 -0.29853,0.53726 -0.30317,0.261 -0.30316,-0.21701 -0.90023,-2.12449 -0.60402,-0.4675 -0.60054,-0.0642 -0.30084,-0.25911 -1.19704,-2.15072 -0.30258,-0.22527 -0.30259,0.16812 -0.30258,0.54405 -0.59245,2.08789 -0.59938,1.02 -0.59997,0.73003 -0.29738,0.62061 -1.19646,3.9953 -0.60227,0.99287 -0.30027,0.31734 -0.29738,0.0243 -0.30027,-0.35344 -0.29912,-0.13572 -0.60343,1.19485 -0.60112,1.64545 -0.59649,1.57612 -0.30027,0.33609 -0.30201,0.13678 -0.30375,-0.0776 -0.5988,-0.34549 -0.30027,0.083 -0.30143,0.21157 -0.60285,0.92247 -0.60228,0.78154 -0.30201,-0.15831 -1.20166,-2.24714 -0.90198,-1.00204 -0.90427,-0.4376 -0.29738,-0.2773 -1.20109,-1.78346 -0.29853,-0.11596 -0.29854,0.14907 -0.60228,0.81533 -0.59938,0.33426 -0.30028,-0.12156 -0.30258,-0.31331 -0.29738,-0.12792 -0.29738,0.0805 -0.30142,0.31524 -0.30086,0.64843 -0.30373,0.98701 -0.59592,2.62191 -0.59938,1.38351 -0.30201,0.31526 -0.30027,-0.0118 -0.29795,-0.18013 -0.30144,0.062 -0.30084,0.17538 -0.2968,0.34088 -0.6046,0.9149 -0.30084,0.0262 -0.30086,-0.53145 -0.59765,-1.92743 -0.30084,-0.56314 -0.60286,-0.32433 -0.60054,0.0864 -0.59765,0.23122 -0.6017,-0.55572 -0.60286,-0.78995 -0.29737,-0.81634 -0.59997,-2.33349 -0.30084,-0.75779 -0.30085,-0.26439 -0.2997,0.19677 -1.19993,2.49521 -1.50135,3.38543 -0.30027,0.42062 -0.29854,-0.102 -0.30027,-0.82449 -0.59996,-2.34956 -1.49847,-4.19801 -1.50193,-2.22263 -0.30085,-0.0246 -1.19935,0.90967 -0.30142,0.0224 -0.30027,-0.0923 -0.29912,-0.31118 -0.59765,-0.90008 -0.29911,-0.17082 -0.30317,0.16653 -0.59822,1.16556 -2.39639,7.36648 -0.5988,2.85716 -0.6046,1.95431 -0.29911,0.48141 -0.30027,0.13817 -1.50136,-0.2055 -0.29738,-0.31404 -0.59938,-1.17027 -0.59996,-1.80798 -0.60112,-2.1427 -0.60055,-2.08297 -1.20166,-5.00267 -0.29969,-0.5738 -0.29911,-0.30626 -0.30085,-0.003 -0.8985,0.52608 -0.59939,1.22158 -0.30085,0.862 -0.29911,1.22888 -0.89676,5.04777 -0.30201,0.61033 -0.29854,-0.19371 -0.59822,-1.04865 -0.30143,-0.23431 -0.59592,0.0386 -0.30142,0.0316 -0.90197,-0.7699 -0.29738,-0.0466 -0.59997,0.17748 -0.29853,-0.24344 -1.79816,-3.43185 -1.20282,-5.51405 -0.89502,-2.53479 -1.50136,-2.46984 -0.297379,-0.13926 -0.301426,0.34056 -0.302009,0.59413 -0.301425,0.26777 -0.29738,-0.11164 -0.297379,-0.39722 -2.399274,-6.2074 -0.299694,-0.36671 -0.901391,-0.48383 -0.29738,-0.39338 -1.499036,-3.599379 -0.6017,-0.485755 -0.299694,-0.47158 L 90.33882,96.201896 89.738277,93.724073 88.838621,90.20205 88.538929,89.697582 87.940121,89.163066 87.64043,88.720148 87.03873,86.945966 86.141388,83.939902 85.542002,82.924579 84.642926,82.538634 84.04354,81.752607 82.843615,80.952164 81.347465,78.409759 81.047196,77.246452 80.446653,73.559045 78.948768,62.720369 78.648497,61.587727 78.35054,61.005812 77.752312,60.476893 76.852658,59.083397 75.952421,58.408125 74.751916,56.609499 74.152531,56.032009 73.852839,55.470346 72.356112,51.156208 71.756729,50.362003 70.56085,48.027256 69.974774,47.553614 69.412417,47.264275 69.139338,46.93952 68.600701,45.690717 68.081735,44.486938 67.579548,43.905886 67.339447,43.836549 65.56964,41.45799 l -1.470691,-3.889576 -0.774687,-4.512205 -0.407883,-0.910328 -0.251094,0.05429 -0.235472,0.07337 -0.307792,-0.461648 -0.274815,-0.273273 -0.2968,-0.145221 -0.309528,-0.11371 -0.155632,-0.163723 0.10067,-0.105932 0.970239,-0.06328 0.319363,0.01559 1.043717,0.342143 1.15075,0.0958 3.723013,0.155259 2.496473,-0.258088 1.228855,-0.316071 0.958669,-0.131897 0.944205,-0.481359 0.948833,-0.366207 2.203722,-0.292389 1.575991,-0.04745 1.895353,0.03681 8.768606,0.114928 3.764671,-0.388361 6.581664,-0.221801 5.33025,-0.0096 14.11042,-0.106589 2.50862,-0.02682 27.2807,-0.143479 9.72379,-0.002 31.66616,0.112208 5.33083,0.241783 10.28269,0.02875 v 0"
       style="fill:none;stroke:#9467bd;stroke-width:1;stroke-linecap:square;stroke-linejoin:round;stroke-miterlimit:10;stroke-dasharray:none;stroke-opacity:1"
       transform="matrix(1.3333333,0,0,-1.3333333,0,208.95936)" />
    <path
       id="path24"
       d="M 43.0625,27.625 V 148.72733"
       style="fill:none;stroke:#000000;stroke-width:0.8;stroke-linecap:square;stroke-linejoin:miter;stroke-miterlimit:10;stroke-dasharray:none;stroke-opacity:1"
       transform="matrix(1.3333333,0,0,-1.3333333,0,208.95936)" />
    <path
       id="path25"
       d="M 43.0625,27.625 H 224.09952"
       style="fill:none;stroke:#000000;stroke-width:0.8;stroke-linecap:square;stroke-linejoin:miter;stroke-miterlimit:10;stroke-dasharray:none;stroke-opacity:1"
       transform="matrix(1.3333333,0,0,-1.3333333,0,208.95936)" />
    <text
       id="text25"
       xml:space="preserve"
       transform="matrix(1.3333333,0,0,1.3333333,43.791667,10.416667)"><tspan
         id="tspan25"
         style="font-variant:normal;font-weight:700;font-size:11px;font-family:'Myriad Pro';writing-mode:lr-tb;fill:#000000;fill-opacity:1;fill-rule:nonzero;stroke:none"
         x="0"
         y="0">A</tspan></text>
    <path
       id="path26"
       d="M 270.1625,27.625 H 451.19952 V 148.72733 H 270.1625 Z"
       style="fill:#ffffff;fill-opacity:1;fill-rule:nonzero;stroke:none"
       transform="matrix(1.3333333,0,0,-1.3333333,0,208.95936)" />
    <path
       id="path27"
       d="M 288.2662,27.625 V 148.72733"
       style="fill:none;stroke:#cccccc;stroke-width:1;stroke-linecap:butt;stroke-linejoin:round;stroke-miterlimit:10;stroke-dasharray:3.7, 1.6;stroke-dashoffset:0;stroke-opacity:1"
       transform="matrix(1.3333333,0,0,-1.3333333,0,208.95936)"
       clip-path="url(#clipPath28)" />
    <text
       id="text28"
       xml:space="preserve"
       transform="matrix(1.3333333,0,0,1.3333333,375.31327,187.20936)"><tspan
         id="tspan28"
         style="font-variant:normal;font-weight:normal;font-size:11px;font-family:'Myriad Pro';writing-mode:lr-tb;fill:#000000;fill-opacity:1;fill-rule:nonzero;stroke:none"
         x="0"
         y="0">0.2</tspan></text>
    <path
       id="path29"
       d="M 360.68101,27.625 V 148.72733"
       style="fill:none;stroke:#cccccc;stroke-width:1;stroke-linecap:butt;stroke-linejoin:round;stroke-miterlimit:10;stroke-dasharray:3.7, 1.6;stroke-dashoffset:0;stroke-opacity:1"
       transform="matrix(1.3333333,0,0,-1.3333333,0,208.95936)"
       clip-path="url(#clipPath28)" />
    <text
       id="text29"
       xml:space="preserve"
       transform="matrix(1.3333333,0,0,1.3333333,471.86635,187.20936)"><tspan
         id="tspan29"
         style="font-variant:normal;font-weight:normal;font-size:11px;font-family:'Myriad Pro';writing-mode:lr-tb;fill:#000000;fill-opacity:1;fill-rule:nonzero;stroke:none"
         x="0"
         y="0">1.0</tspan></text>
    <path
       id="path30"
       d="M 433.09582,27.625 V 148.72733"
       style="fill:none;stroke:#cccccc;stroke-width:1;stroke-linecap:butt;stroke-linejoin:round;stroke-miterlimit:10;stroke-dasharray:3.7, 1.6;stroke-dashoffset:0;stroke-opacity:1"
       transform="matrix(1.3333333,0,0,-1.3333333,0,208.95936)"
       clip-path="url(#clipPath28)" />
    <text
       id="text30"
       xml:space="preserve"
       transform="matrix(1.3333333,0,0,1.3333333,568.41942,187.20936)"><tspan
         id="tspan30"
         style="font-variant:normal;font-weight:normal;font-size:11px;font-family:'Myriad Pro';writing-mode:lr-tb;fill:#000000;fill-opacity:1;fill-rule:nonzero;stroke:none"
         x="0"
         y="0">1.8</tspan></text>
    <path
       id="path31"
       d="M 324.47361,27.625 V 148.72733"
       style="fill:none;stroke:#cccccc;stroke-width:1;stroke-linecap:butt;stroke-linejoin:round;stroke-miterlimit:10;stroke-dasharray:3.7, 1.6;stroke-dashoffset:0;stroke-opacity:1"
       transform="matrix(1.3333333,0,0,-1.3333333,0,208.95936)"
       clip-path="url(#clipPath28)" />
    <path
       id="path32"
       d="M 396.88841,27.625 V 148.72733"
       style="fill:none;stroke:#cccccc;stroke-width:1;stroke-linecap:butt;stroke-linejoin:round;stroke-miterlimit:10;stroke-dasharray:3.7, 1.6;stroke-dashoffset:0;stroke-opacity:1"
       transform="matrix(1.3333333,0,0,-1.3333333,0,208.95936)"
       clip-path="url(#clipPath28)" />
    <text
       id="text32"
       xml:space="preserve"
       transform="matrix(1.3333333,0,0,1.3333333,415.47051,205.85519)"><tspan
         id="tspan32"
         style="font-variant:normal;font-weight:normal;font-size:11px;font-family:'Myriad Pro';writing-mode:lr-tb;fill:#000000;fill-opacity:1;fill-rule:nonzero;stroke:none"
         x="0"
         y="0">Knee joint angle [rad]</tspan></text>
    <path
       id="path33"
       d="M 270.1625,27.625 H 451.19952"
       style="fill:none;stroke:#cccccc;stroke-width:1;stroke-linecap:butt;stroke-linejoin:round;stroke-miterlimit:10;stroke-dasharray:3.7, 1.6;stroke-dashoffset:0;stroke-opacity:1"
       transform="matrix(1.3333333,0,0,-1.3333333,0,208.95936)"
       clip-path="url(#clipPath28)" />
    <text
       id="text33"
       xml:space="preserve"
       transform="matrix(1.3333333,0,0,1.3333333,337.46667,177.33436)"><tspan
         id="tspan33"
         style="font-variant:normal;font-weight:normal;font-size:11px;font-family:'Myriad Pro';writing-mode:lr-tb;fill:#000000;fill-opacity:1;fill-rule:nonzero;stroke:none"
         x="0"
         y="0">0.0</tspan></text>
    <path
       id="path34"
       d="M 270.1625,78.615456 H 451.19952"
       style="fill:none;stroke:#cccccc;stroke-width:1;stroke-linecap:butt;stroke-linejoin:round;stroke-miterlimit:10;stroke-dasharray:3.7, 1.6;stroke-dashoffset:0;stroke-opacity:1"
       transform="matrix(1.3333333,0,0,-1.3333333,0,208.95936)"
       clip-path="url(#clipPath28)" />
    <text
       id="text34"
       xml:space="preserve"
       transform="matrix(1.3333333,0,0,1.3333333,337.46667,109.34709)"><tspan
         id="tspan34"
         style="font-variant:normal;font-weight:normal;font-size:11px;font-family:'Myriad Pro';writing-mode:lr-tb;fill:#000000;fill-opacity:1;fill-rule:nonzero;stroke:none"
         x="0"
         y="0">0.4</tspan></text>
    <path
       id="path35"
       d="M 270.1625,129.60591 H 451.19952"
       style="fill:none;stroke:#cccccc;stroke-width:1;stroke-linecap:butt;stroke-linejoin:round;stroke-miterlimit:10;stroke-dasharray:3.7, 1.6;stroke-dashoffset:0;stroke-opacity:1"
       transform="matrix(1.3333333,0,0,-1.3333333,0,208.95936)"
       clip-path="url(#clipPath28)" />
    <text
       id="text35"
       xml:space="preserve"
       transform="matrix(1.3333333,0,0,1.3333333,337.46667,41.359811)"><tspan
         id="tspan35"
         style="font-variant:normal;font-weight:normal;font-size:11px;font-family:'Myriad Pro';writing-mode:lr-tb;fill:#000000;fill-opacity:1;fill-rule:nonzero;stroke:none"
         x="0"
         y="0">0.8</tspan></text>
    <path
       id="path36"
       d="M 270.1625,53.120228 H 451.19952"
       style="fill:none;stroke:#cccccc;stroke-width:1;stroke-linecap:butt;stroke-linejoin:round;stroke-miterlimit:10;stroke-dasharray:3.7, 1.6;stroke-dashoffset:0;stroke-opacity:1"
       transform="matrix(1.3333333,0,0,-1.3333333,0,208.95936)"
       clip-path="url(#clipPath28)" />
    <path
       id="path37"
       d="M 270.1625,104.11068 H 451.19952"
       style="fill:none;stroke:#cccccc;stroke-width:1;stroke-linecap:butt;stroke-linejoin:round;stroke-miterlimit:10;stroke-dasharray:3.7, 1.6;stroke-dashoffset:0;stroke-opacity:1"
       transform="matrix(1.3333333,0,0,-1.3333333,0,208.95936)"
       clip-path="url(#clipPath28)" />
    <text
       id="text37"
       xml:space="preserve"
       transform="matrix(0,-1.3333333,1.3333333,0,313.61042,119.39114)"><tspan
         id="tspan37"
         style="font-style:italic;font-variant:normal;font-weight:normal;font-size:7.7px;font-family:'Minion Pro';writing-mode:lr-tb;fill:#000000;fill-opacity:1;fill-rule:nonzero;stroke:none"
         x="0"
         y="0">EMG</tspan><tspan
         id="tspan38"
         style="font-style:italic;font-variant:normal;font-weight:normal;font-size:5.39px;font-family:'Minion Pro';writing-mode:lr-tb;fill:#000000;fill-opacity:1;fill-rule:nonzero;stroke:none"
         x="16.293201"
         y="1.036875">hams</tspan><tspan
         id="tspan39"
         style="font-style:italic;font-variant:normal;font-weight:normal;font-size:7.7px;font-family:'Minion Pro';writing-mode:lr-tb;fill:#000000;fill-opacity:1;fill-rule:nonzero;stroke:none"
         x="0"
         y="11.265469">EMG</tspan><tspan
         id="tspan40"
         style="font-style:italic;font-variant:normal;font-weight:normal;font-size:5.39px;font-family:'Minion Pro';writing-mode:lr-tb;fill:#000000;fill-opacity:1;fill-rule:nonzero;stroke:none"
         x="16.806681"
         y="8.1110935">MVC</tspan><tspan
         id="tspan41"
         style="font-style:italic;font-variant:normal;font-weight:normal;font-size:5.39px;font-family:'Minion Pro';writing-mode:lr-tb;fill:#000000;fill-opacity:1;fill-rule:nonzero;stroke:none"
         x="16.293201"
         y="12.993594">hams</tspan><tspan
         id="tspan42"
         style="font-variant:normal;font-weight:normal;font-size:11px;font-family:'Myriad Pro';writing-mode:lr-tb;fill:#000000;fill-opacity:1;fill-rule:nonzero;stroke:none"
         x="30.137035"
         y="5.145"> [ ]</tspan></text>
    <path
       id="path42"
       d="m 0,2.0440625 h 28.762035 v 0.6875 H 0 Z"
       style="fill:#000000;fill-opacity:1;fill-rule:nonzero;stroke:none"
       transform="matrix(0,-1.3333333,-1.3333333,0,321.46667,119.39114)" />
    <path
       id="path43"
       d="m 433.09582,38.993683 -0.11051,0.792985 -0.33209,0.259151 -0.21233,-0.08175 -1.68303,2.075376 -0.61789,0.813449 -0.51318,0.465626 -0.36739,0.291974 -1.20281,1.243537 -1.60955,1.088427 -1.565,0.396111 -0.27597,-0.114417 -0.56815,-0.453562 -0.87825,-0.370603 -1.82592,-1.096801 -0.60401,0.0066 -1.82014,0.410129 -0.90892,0.399035 -0.60228,0.197742 -0.90312,-0.264253 -0.90603,0.08294 -1.50482,-0.732135 -1.20108,-0.329549 -1.19935,-0.08451 -0.90023,-0.438612 -0.59939,0.18344 -0.59707,0.18551 -0.90255,0.09314 -0.89677,0.392395 -0.90138,-0.09024 -1.80105,-0.08372 -0.60401,0.168114 -0.59881,-0.06746 -1.20687,-0.438512 -0.90313,0.05151 -0.60112,0.242479 -0.3049,0.140911 -0.30374,-0.0095 -0.59881,-0.34968 -0.6017,-0.321391 -0.90775,-0.586086 -0.59939,-0.361234 -1.20802,-0.878661 -1.20109,-0.885763 -0.60169,-0.471353 -0.30086,-0.04409 -1.80047,0.572174 -0.90081,0.414915 -0.60227,0.394394 -0.89735,0.443152 -1.20108,0.898806 -0.59881,0.182382 -1.20108,-0.476234 -1.20398,0.09841 -0.60286,-0.176474 -3.30588,0.187647 -0.90312,-0.03117 -1.20339,0.101625 -0.60344,0.01829 -1.19819,0.450123 -0.60807,-0.108714 -2.09785,0.04718 -0.59822,-0.245449 -0.59939,-0.291178 -0.90081,-0.175944 -0.59938,-0.09036 -0.60344,-0.196989 -0.59475,-0.520278 -0.90545,-0.821168 -0.29853,-0.170466 -1.19935,0.146472 -0.60054,0.16905 -0.89792,0.09396 -0.60575,0.03709 -0.89909,0.01485 -2.703,0.10846 -3.00156,-0.901563 -0.30027,-0.233721 -0.60054,-0.683253 -0.90082,-0.59805 -0.30027,-0.0826 -0.59823,0.128972 -0.59938,-0.01354 -1.2005,-0.293262 -0.59881,0.216419 -1.50136,0.146045 -0.60112,0.116262 -0.8985,-0.07791 -0.60285,0.101706 -1.19588,-0.09746 -0.90081,-0.352278 -0.89676,-0.447093 -2.09959,-0.396739 -0.90254,0.08106 -1.79816,-0.155459 -1.19704,-0.33475 -0.90254,0.0012 -2.99924,0.947654 -0.8985,0.112219 -0.59997,0.086 -1.49672,0.644777 -1.19819,0.07386 -1.79816,0.107245 -0.302,0.06655 -0.89561,-0.08842 -0.59939,-0.04973 -0.90081,-0.359023 -0.59591,0.03347 -0.60228,-0.222583 -1.19761,-0.586178 -0.90082,-0.19292 -0.89907,-0.0729 -0.59708,-0.176211 -2.10016,0.03514 -0.59823,0.195473 -0.59996,-0.05135 -0.89676,-0.02474 -0.89908,-0.07921 -1.49615,-0.162987 -0.60112,-0.137171 -0.89676,0.08841 -0.6017,-0.09148 -0.8985,-0.256281 -3.29835,-0.436688 -1.79642,-0.800601 -1.50078,-1.044192 -0.5988,-0.362161 -3.59458,-1.425139 -1.50193,-0.429312 -0.89908,-0.276694 -0.59996,-0.05299 -1.79931,-0.397405 -1.19704,-0.01746 -0.89792,-0.06162 -0.59765,-0.04124 -0.87073,0.03855 -2.58846,-0.372514 -2.11347,-0.544252 -3.37125,-0.177095 -0.33383,-0.03736 -0.19786,-0.01882 0.4235,0.08855 0.28523,0.06329 0.90776,0.04639 1.96362,-0.03918 0.56004,-0.03811 0.81519,-0.133588 2.34894,-0.03374 3.10685,-0.01526 4.10428,-0.169983 1.57252,-0.01829 4.08461,-0.0038 2.51209,-0.0276 1.87742,-0.01868 3.45167,-0.135265 10.6576,0.164395 0.93552,0.0019 3.13752,-0.0092 2.81988,0.107404 1.57079,0.05775 13.17779,0.04938 3.4482,0.03956 35.74786,-0.129932 6.58341,0.22519 1.25663,0.385025 1.25199,0.618666 0.94363,0.572745 0.94131,0.416418 2.19331,0.668869 2.19446,0.558447 0.939,0.54492 1.88263,1.281217 0.94305,0.492869 1.25373,0.405127 1.565,0.228448 1.25836,0.106975 1.252,0.08246 5.95855,1.133792 0.93785,0.06844 1.25662,0.398621 0.62542,0.123314 1.56962,0.07182 0.62484,0.06588 0.59939,4.7e-4 1.12935,0.552155 0.80882,0.715342 0.76658,0.154508 0.72493,-0.146793 1.10042,-0.443804 0.40846,0.09037 0.39053,-0.168669 0.55599,0.383952 0.5126,0.382342 0.47615,-0.06168 0.43913,0.03099 0.26266,0.03413 0.47904,-0.108326 0.20887,0.04979 0.44606,-0.421599 0.14696,0.03022 0.28869,0.489136 0.14522,0.683918 0.0607,0.320986 0.0185,-0.01544"
       style="fill:none;stroke:#1f77b4;stroke-width:1;stroke-linecap:square;stroke-linejoin:round;stroke-miterlimit:10;stroke-dasharray:none;stroke-opacity:1"
       transform="matrix(1.3333333,0,0,-1.3333333,0,208.95936)" />
    <path
       id="path44"
       d="m 433.09408,41.848716 -0.0914,0.197656 -0.20076,0.274103 -0.0532,-0.07818 -0.18977,0.01853 -0.31936,0.110228 -0.28871,0.206641 -0.21348,-0.01054 -0.23084,-0.09346 -0.24763,0.426209 -1.3625,3.043319 -0.35407,0.418654 -0.55773,0.141669 -0.59997,0.338227 -0.63699,0.267256 -0.67748,-0.04705 -1.22654,-0.06129 -0.25862,0.17563 -0.53112,-0.04222 -1.1114,-0.189301 -2.09438,0.459935 -0.60343,-0.153625 -0.60287,-0.02209 -0.90891,-0.291899 -0.30142,0.144723 -1.8051,2.015332 -0.30258,0.15196 -1.20109,-0.121984 -1.20513,-0.08048 -0.90313,-0.05447 -0.90197,0.171995 -1.50425,-0.191702 -0.90486,0.256587 -0.60402,-0.20438 -0.29969,-0.112556 -0.60575,0.151763 -1.20687,0.446358 -0.6017,0.321079 -0.60343,-0.230312 -0.30028,-0.08606 -0.59765,0.128273 -0.90486,0.347854 -6.29412,-1.406464 -0.60054,-0.137045 -0.60111,0.266465 -0.60113,0.35155 -0.59939,0.0373 -1.80626,-0.667327 -1.50308,-0.458358 -0.9037,-0.140475 -1.20341,0.04504 -0.60516,-0.02239 -0.60575,0.04176 -0.59766,-0.268453 -0.90427,-0.794894 -0.59997,-0.338449 -0.30028,-0.03961 -1.20165,0.380884 -0.59824,-0.153405 -1.80046,-0.6333 -0.59939,-0.09083 -0.59476,0.05698 -0.6069,-0.0049 -0.29911,-0.01615 -0.89619,-0.362529 -0.30085,-0.02202 -0.90371,0.224696 -0.90023,-0.234405 -1.50425,-0.786836 -0.90139,0.0094 -0.59996,-0.111802 -0.30143,-0.138924 -1.19993,-0.01609 -0.60054,-0.235641 -0.6017,-0.53421 -1.50251,-1.52146 -1.80105,-0.903085 -0.60228,-0.155938 -1.19704,0.205815 -0.604,-0.279213 -0.60054,-0.382209 -1.20051,-0.261301 -0.90139,0.11067 -1.49962,-0.11348 -0.89792,0.175408 -2.10016,-0.27223 -1.20282,-0.507247 -0.89792,-0.332389 -0.89966,-0.606553 -0.60112,-0.464808 -1.19703,0.0542 -3.90295,1.071278 -0.59765,0.05269 -0.90081,-0.176393 -0.59939,0.06617 -2.99924,1.126236 -1.19587,-0.27224 -0.90371,-0.242696 -1.19703,-0.224813 -0.90139,-0.05503 -1.49962,-0.284821 -0.90082,-0.1785 -1.19819,-0.369786 -0.5988,-0.233229 -0.60054,-0.01986 -0.59881,0.133761 -0.59881,0.09152 -0.5988,0.200082 -1.79758,0.08059 -0.60228,0.01513 -0.89676,-0.384572 -0.90023,-0.314473 -1.19531,-0.231223 -1.20339,-0.247913 -1.49904,-0.01877 -0.89908,0.162583 -0.2968,-0.106575 -0.90082,0.01478 -2.69434,-1.108249 -0.89907,-0.497792 -2.09785,-0.483166 -0.59591,-0.2431 -0.60286,-0.385537 -1.49788,-0.534637 -0.89966,-0.453021 -3.89889,-0.645069 -1.49847,-0.0021 -1.49672,-0.317935 -1.79873,-0.233177 -1.49905,-0.492933 -3.896,-0.826103 -2.69318,-0.156421 -5.16825,-1.018704 -3.664,0.239194 -1.32142,-0.05276 -0.74171,0.02448 1.77327,0.0034 1.33184,0.02698 1.28498,-0.05713 0.61847,-0.04267 1.85254,-0.07402 1.03388,0.0096 1.68476,-0.02194 5.01146,-0.0094 1.2601,0.02048 3.15313,-0.0049 3.75252,0.0209 4.70772,0.0644 12.22259,-0.08982 1.88147,0.0089 9.72149,0.0099 8.47065,-0.08613 1.88147,0.02231 2.19215,-0.0041 9.40907,0.108911 4.3872,-5.2e-5 8.15302,0.04879 2.82336,-0.0244 10.34576,0.10344 1.88146,0.09254 3.13636,0.0082 5.33314,-0.048 6.26924,0.05187 5.95856,0.07098 2.1933,0.08271 4.39298,0.08792 1.87974,-0.196543 0.94073,-0.119326 0.94305,-0.006 3.13115,0.275312 0.59302,0.29986 3.41464,2.179476 0.88867,0.609581 0.81345,0.752729 0.91412,0.250701 0.49814,0.29964 0.31068,0.11638 2.08686,2.833523 0.23489,0.772146 0.10588,0.391148 0.0312,-0.106066"
       style="fill:none;stroke:#ff7f0e;stroke-width:1;stroke-linecap:square;stroke-linejoin:round;stroke-miterlimit:10;stroke-dasharray:none;stroke-opacity:1"
       transform="matrix(1.3333333,0,0,-1.3333333,0,208.95936)" />
    <path
       id="path45"
       d="m 433.0935,39.735836 -0.096,1.213395 -0.52533,1.842957 -0.34251,1.410067 -0.30548,1.216062 -0.34192,0.605498 -0.38416,0.826116 -0.88982,0.922969 -0.16721,-0.02364 -0.34308,-0.34707 -0.94189,-0.323199 -0.41078,0.05419 -0.42466,-0.06098 -0.66881,0.05891 -0.46343,-0.149533 -0.48367,-0.08962 -0.76485,-0.558674 -0.80593,0.02375 -2.34373,-0.161521 -0.61212,-0.160381 -0.90717,-0.05364 -0.60517,0.07884 -0.60865,-0.271433 -0.30201,-0.158135 -1.20802,-0.01139 -0.60402,0.157086 -2.10941,0.06333 -0.60112,0.05365 -0.90082,-0.05539 -0.60112,0.406156 -0.59938,0.410032 -0.2997,0.0455 -0.90139,-0.208372 -2.10131,0.171609 -0.90777,-0.165753 -0.89791,-0.452153 -0.6046,-0.485137 -1.19761,-1.494502 -0.9037,-0.445597 -1.20109,-1.012053 -0.90138,-0.193952 -0.60344,0.01145 -0.29681,0.07899 -0.90197,0.582969 -0.90081,0.289407 -0.90371,-0.236135 -0.60169,0.07222 -2.40507,-0.435945 -1.50192,0.448984 -0.90371,-0.131352 -1.20341,-0.256406 -0.59996,-0.117204 -0.90196,-0.501785 -0.59996,-0.0333 -0.90487,0.09136 -1.19761,0.139043 -0.60112,-0.122023 -0.89677,-0.187615 -0.90601,0.230367 -0.59765,0.09921 -0.6017,0.04612 -1.20167,0.253065 -1.80278,-0.111932 -0.89792,0.08524 -2.70476,-0.531952 -0.60575,-0.02014 -1.19877,-0.312084 -2.401,0.11568 -0.90081,-0.124566 -1.49962,-0.258066 -0.90488,-0.390061 -0.59648,0.0042 -0.2997,0.01226 -1.2005,-0.350218 -3.90583,0.08253 -2.10422,0.685662 -2.69897,1.044438 -0.59765,0.05506 -0.90312,-0.07031 -1.19819,-0.02218 -0.60228,-0.304166 -1.49788,-1.264005 -1.50136,-0.714379 -2.10132,-1.17541 -0.59707,-0.207315 -2.69897,0.244476 -0.90023,0.420248 -0.59823,0.357765 -1.20282,0.338556 -2.39754,-0.07161 -1.20108,-0.537173 -0.59997,-0.184456 -2.09958,-0.112125 -2.09785,0.150733 -1.79642,-0.484273 -0.90139,-0.471087 -0.89792,-0.261189 -0.90139,0.01178 -0.59707,-0.169883 -0.89966,0.0071 -1.19646,-0.494196 -0.60169,-0.120028 -2.09901,-0.08493 -1.19645,-0.0922 -1.5002,0.347465 -1.19819,0.532847 -1.79642,-0.16949 -0.8985,-0.294858 -4.79797,-2.25768 -1.49962,-0.274697 -0.90082,0.0036 -1.49846,-0.195562 -0.89444,-0.241965 -0.60344,-0.216523 -0.59938,-0.110613 -0.89735,-0.382498 -0.5988,-0.31083 -0.59997,-0.117436 -0.89676,0.01648 -1.20051,-0.07853 -1.19761,0.03413 -1.19993,-0.298998 -0.5988,-0.256263 -0.59996,-0.07378 -1.49905,-0.592339 -0.89792,-0.134248 -2.95353,-0.489173 -0.81634,0.05674 -0.78048,-0.153068 -0.73129,-0.440108 -0.46516,-0.261038 -0.4478,0.04047 -1.03446,0.07937 -1.57715,0.04551 -0.96793,-0.04676 -0.65608,-0.112345 -0.98702,0.112849 0.84007,0.01463 0.96792,6.3e-5 1.34283,-0.002 1.29308,-0.04884 4.63135,-0.106193 3.07734,-0.07887 5.67506,-0.0068 5.32562,-0.0096 2.82799,0.03941 10.96943,-0.194767 1.88089,-0.008 5.01551,0.03234 3.44878,0.02949 1.88089,-0.02621 2.19562,-0.01424 15.99363,-0.04988 5.01898,0.03206 1.88031,-0.0054 7.21171,-0.109077 6.26808,-0.06521 4.07825,0.124354 1.88147,0.05507 1.25315,0.08339 1.56905,0.126322 2.19447,0.324858 0.94131,0.09451 4.3872,0.147302 5.64903,0.251965 4.07361,0.149543 1.25258,0.01097 3.76525,0.143593 11.9148,-0.567938 1.25663,0.183865 3.13057,0.126737 0.87536,0.289172 0.83543,0.04784 2.04347,0.6312 0.68558,0.522192 1.04545,0.117945 0.57104,0.489395 0.53286,0.354126 0.49582,0.06919 1.12009,0.680968 0.2343,0.353323 0.58898,1.6283 0.48193,1.543138 0.25515,1.023016 0.0434,0.522438 v 0"
       style="fill:none;stroke:#2ca02c;stroke-width:1;stroke-linecap:square;stroke-linejoin:round;stroke-miterlimit:10;stroke-dasharray:none;stroke-opacity:1"
       transform="matrix(1.3333333,0,0,-1.3333333,0,208.95936)" />
    <path
       id="path46"
       d="m 433.0883,40.121373 -0.10588,1.566275 -0.27251,1.064799 -0.52648,0.72662 -0.29333,0.233492 -0.4559,0.05924 -0.39285,0.135334 -0.74228,0.0994 -0.15968,0.07783 -0.86726,1.047906 -0.37722,0.09672 -0.60922,0.464402 -0.65088,0.168052 -0.68501,-0.245404 -0.72725,0.09019 -0.766,0.163699 -0.80535,-0.08576 -0.27829,-0.07317 -0.2835,0.08729 -0.58087,0.425218 -0.59417,0.07538 -1.51929,-0.143979 -1.51351,-0.539977 -0.60401,-0.600588 -0.60054,-0.169068 -0.90776,-0.364957 -0.60112,-0.107412 -0.60054,-0.09702 -0.90486,-0.244363 -0.60113,0.02762 -1.50251,-0.40417 -0.30201,0.104654 -0.30027,-0.03462 -0.60054,-0.279382 -1.20398,0.110663 -0.604,0.154567 -0.60113,0.259316 -0.60228,0.208139 -1.50308,0.824479 -2.10016,0.455052 -2.70186,1.10995 -0.89966,0.09147 -1.19993,-0.558001 -0.30374,-0.05611 -3.30414,1.067135 -0.60171,0.275612 -1.20165,0.131465 -0.60055,-0.02327 -0.90312,0.395411 -0.90024,-0.288322 -1.81088,0.532253 -0.89735,0.388499 -0.60574,-0.0011 -1.19646,0.428432 -0.60228,-0.05558 -0.59822,-0.105721 -0.59881,-0.07461 -0.60228,-0.04559 -1.20051,0.241547 -1.8022,-0.476535 -1.20108,-0.175557 -0.59996,-0.263174 -0.59881,-0.147899 -0.6017,-0.449929 -2.10422,-1.846813 -0.60459,-0.203599 -0.59938,0.09516 -0.59996,0.02013 -1.50078,-0.426534 -1.19993,-0.540871 -1.20339,-0.221428 -0.89793,-0.118586 -1.20108,-0.474412 -1.50136,-1.422645 -0.89849,-0.79375 -0.90487,-0.359547 -2.99924,-0.853666 -0.60227,0.118811 -0.60286,-0.07475 -1.79815,-0.591996 -1.79816,-0.266447 -0.90312,-0.308651 -0.59939,-0.07451 -0.59938,-0.203493 -0.90197,-0.05329 -0.89619,-0.245604 -0.60343,0.05147 -0.8985,0.208636 -0.6017,-0.04548 -0.8985,-0.375833 -1.79989,-0.09576 -0.89908,0.296177 -1.5002,0.0041 -0.89792,-0.37847 -0.90023,-0.421347 -1.49615,0.115023 -0.9066,0.183182 -0.59476,-0.134882 -2.10247,-0.6939 -0.59881,0.07792 -1.80105,0.33197 -1.49904,-0.04187 -1.79584,-0.436095 -1.49788,-0.382926 -0.6017,-0.27291 -0.89966,-0.07669 -0.59765,-0.136202 -0.59996,0.06779 -1.49672,-0.371723 -0.90371,0.209713 -2.99403,0.01005 -0.90313,-0.236486 -0.89618,-0.256445 -1.20051,-0.06229 -0.59823,-0.0476 -0.89792,-0.123342 -0.8985,-0.213713 -0.60054,-0.23675 -3.896,-0.518702 -0.89734,-0.474269 -1.50194,-0.394717 -1.49788,0.06034 -0.89734,0.05275 -1.19935,-0.380088 -1.19935,-0.260711 -3.896,-0.134886 -0.90024,-0.183124 -0.59996,-0.0576 -0.59823,-0.187735 -1.2005,-0.03987 -0.59881,-0.138359 -0.89908,-0.0675 -0.59881,-0.199398 -0.89791,-0.34021 -1.77096,-0.428684 -1.35962,-0.02787 -1.00321,-0.04863 -0.92569,-0.07506 -0.85106,-0.03763 -0.58666,-0.195301 -1.06107,-0.147886 -0.31647,-0.05027 -0.57914,-0.110183 -1.12413,0.01198 -0.45186,0.01569 -0.24877,-0.112919 -0.16316,0.06194 0.24184,0.0075 0.61211,0.08432 0.73188,-0.0067 2.31885,0.01828 3.08024,-0.0063 3.34753,-0.02982 1.89304,-0.03706 3.46671,0.07337 1.57425,-0.0075 6.59208,0.05796 2.50805,-0.02764 6.8987,0.09435 2.817,0.06341 42.33243,0.0081 1.56557,0.0186 5.64556,0.418256 1.2549,0.121952 1.56731,-0.05807 1.88088,0.194277 0.94131,-0.04132 1.56616,0.282556 0.94246,0.07466 1.25374,0.08361 1.56847,-0.04694 0.94247,-0.02097 2.50688,0.231089 1.25489,0.154058 1.24737,0.251306 1.8832,0.470466 1.25836,0.272382 2.19621,0.09059 1.25547,0.113055 2.19504,0.01003 1.25431,0.22067 1.56789,0.233722 1.25258,0.04599 0.9442,-0.05715 1.87858,-0.243065 1.56905,0.157288 0.94131,-0.08421 0.93899,-0.07124 1.56847,0.114753 1.25489,-0.06064 1.25373,0.26968 0.62948,0.05194 0.93842,0.273189 1.25604,0.209405 1.25258,0.720131 0.94015,0.19464 0.62947,-0.03398 1.56673,0.556647 0.94131,-0.186568 0.62715,-0.142916 0.61965,0.190058 1.15305,0.561461 1.09232,0.07145 0.76717,0.790858 0.48773,0.519755 1.13396,0.522941 0.82329,0.477529 0.75444,0.810955 1.29018,0.283292 0.40615,0.250748 0.25052,0.0046 0.44028,0.425046 0.52533,1.049754 0.59013,2.788331 v 0"
       style="fill:none;stroke:#d62728;stroke-width:1;stroke-linecap:square;stroke-linejoin:round;stroke-miterlimit:10;stroke-dasharray:none;stroke-opacity:1"
       transform="matrix(1.3333333,0,0,-1.3333333,0,208.95936)" />
    <path
       id="path47"
       d="m 433.07152,44.485063 -0.11629,0.709695 -0.16431,0.140293 -0.17646,0.108816 -0.48253,-0.393514 -0.29506,0.150761 -0.57624,-0.0065 -0.85684,0.642964 -0.83486,-0.578953 -0.55194,0.381008 -0.39227,0.150373 -0.41019,-0.334203 -0.42582,-0.570656 -0.4478,-0.244308 -0.4588,-0.0775 -0.97833,-0.04631 -0.51261,-0.271463 -0.53169,-0.475061 -0.55137,-0.239121 -2.67524,-0.144142 -0.60634,0.443575 -0.60516,0.654817 -1.21382,1.640131 -0.60459,0.404207 -0.30085,0.02116 -0.30432,-0.128796 -1.2063,-1.050131 -0.30258,-0.09666 -0.60748,0.130892 -1.20629,0.540891 -0.6017,0.07706 -0.60344,-0.0835 -0.60228,0.08282 -0.90312,-0.304141 -0.60343,0.02842 -0.90486,-0.259541 -0.59881,0.448807 -0.60054,0.619585 -0.60286,0.187822 -0.89213,-0.105627 -0.59882,0.168839 -0.89791,-0.227856 -0.59245,-0.151084 -0.90139,-0.401844 -0.89444,-0.22691 -0.59881,-0.222831 -0.60112,0.127543 -0.89908,0.620486 -0.6017,0.407354 -0.60806,0.0792 -0.29854,-0.08298 -0.90197,-0.590766 -0.9066,0.139595 -2.71054,0.439938 -0.90081,0.303762 -0.90602,0.06166 -0.60054,-0.0779 -1.20456,0.257545 -0.90544,-0.257846 -0.59244,-0.359421 -1.5002,-1.283352 -0.59938,-0.111125 -1.49557,0.117494 -1.50078,-0.517068 -0.59765,-0.205759 -0.90255,-0.386768 -2.10364,-0.03134 -0.5988,-0.05273 -0.6017,-0.234095 -0.90371,-0.7719 -0.60343,-0.492255 -0.59939,-0.15815 -1.80394,-0.246587 -2.40158,0.502426 -0.60113,0.06313 -0.5988,0.269386 -0.60055,-0.0587 -0.59996,-0.282613 -1.20339,-0.760727 -0.59592,0.04635 -0.59938,0.171523 -0.90023,-0.161617 -0.89908,0.06351 -0.6046,-0.08947 -2.40216,0.08798 -1.80279,0.07515 -0.59822,-0.09586 -1.50136,0.244082 -0.29969,-0.0034 -0.6017,-0.379629 -1.5002,-1.10569 -0.59996,-0.160989 -1.49962,0.12608 -0.8985,-0.218726 -0.59997,0.03375 -0.59996,0.250239 -0.60112,-0.08668 -2.1019,-0.607735 -0.59822,-0.04948 -0.59765,0.06897 -0.9014,-0.234172 -0.89792,-0.232593 -0.90254,0.139351 -0.89561,0.06994 -0.90371,0.123137 -1.49614,-0.410465 -0.90198,-0.163517 -0.59938,-0.258226 -1.20108,-0.0817 -1.20051,-0.06611 -0.6017,-0.271905 -0.59881,0.09506 -1.19934,0.243936 -0.59938,-0.103307 -1.79874,-0.56835 -0.89676,-0.429864 -0.89735,-0.0126 -2.10074,-0.345808 -0.59996,0.207784 -0.89908,0.07496 -0.59765,0.06368 -0.60112,-0.04994 -0.6017,-0.0491 -0.89502,-0.276213 -1.20456,-0.369651 -0.59418,-0.02711 -0.60343,-0.269273 -0.89619,-0.411157 -0.90081,-0.02464 -1.79816,-0.126052 -0.90139,-0.04986 -0.59765,0.151127 -1.49904,0.639039 -0.90254,0.101985 -1.19877,-0.150504 -0.59939,-0.213704 -2.69723,-0.152702 -2.99808,-0.950588 -0.89619,-0.184217 -1.49904,-0.631987 -1.19703,0.08486 -2.99982,-0.527193 -0.8985,-0.0105 -0.60054,-0.249725 -1.19935,-0.781281 -1.19703,-0.388669 -2.68104,-0.276863 -2.39522,-0.148 -2.78113,-0.367384 -0.53227,-0.424378 -0.79667,-0.691795 -0.8042,-0.336996 -0.44375,-0.0066 -0.73361,0.09123 -0.37953,0.120587 -0.0133,0.02321 0.12323,-0.06026 1.25721,0.01242 0.61732,-0.0258 1.22654,0.05099 5.69763,0.06306 1.78832,-0.04961 1.27166,-0.04421 1.26068,-0.09113 1.26415,-0.07776 5.35975,-0.114123 8.45213,-0.02765 1.88321,-0.01406 12.85206,-0.105423 10.34633,0.06399 4.39299,0.0258 11.60296,0.29718 3.44993,-0.04056 5.64324,-0.104821 12.8538,0.144301 7.52645,1.19e-4 11.60643,0.0078 2.50631,-0.03499 8.77902,-0.121784 2.51036,-0.0091 2.81815,-0.02133 13.76908,-0.04252 4.03948,0.09306 v 0"
       style="fill:none;stroke:#9467bd;stroke-width:1;stroke-linecap:square;stroke-linejoin:round;stroke-miterlimit:10;stroke-dasharray:none;stroke-opacity:1"
       transform="matrix(1.3333333,0,0,-1.3333333,0,208.95936)" />
    <path
       id="path48"
       d="M 270.1625,27.625 V 148.72733"
       style="fill:none;stroke:#000000;stroke-width:0.8;stroke-linecap:square;stroke-linejoin:miter;stroke-miterlimit:10;stroke-dasharray:none;stroke-opacity:1"
       transform="matrix(1.3333333,0,0,-1.3333333,0,208.95936)" />
    <path
       id="path49"
       d="M 270.1625,27.625 H 451.19952"
       style="fill:none;stroke:#000000;stroke-width:0.8;stroke-linecap:square;stroke-linejoin:miter;stroke-miterlimit:10;stroke-dasharray:none;stroke-opacity:1"
       transform="matrix(1.3333333,0,0,-1.3333333,0,208.95936)" />
    <text
       id="text49"
       xml:space="preserve"
       transform="matrix(1.3333333,0,0,1.3333333,347.3625,10.416667)"><tspan
         id="tspan49"
         style="font-variant:normal;font-weight:700;font-size:11px;font-family:'Myriad Pro';writing-mode:lr-tb;fill:#000000;fill-opacity:1;fill-rule:nonzero;stroke:none"
         x="0"
         y="0">B</tspan></text>
    <text
       id="text50"
       xml:space="preserve"
       transform="matrix(1.3333333,0,0,1.3333333,565.50585,20.722792)"><tspan
         id="tspan50"
         style="font-variant:normal;font-weight:700;font-size:11px;font-family:'Myriad Pro';writing-mode:lr-tb;fill:#000000;fill-opacity:1;fill-rule:nonzero;stroke:none"
         x="0"
         y="0">Cycle</tspan></text>
    <path
       id="path50"
       d="m 426.525,133.61438 h 3.6652 3.6652"
       style="fill:none;stroke:#1f77b4;stroke-width:1;stroke-linecap:square;stroke-linejoin:round;stroke-miterlimit:10;stroke-dasharray:none;stroke-opacity:1"
       transform="matrix(1.3333333,0,0,-1.3333333,0,208.95936)" />
    <text
       id="text51"
       xml:space="preserve"
       transform="matrix(1.3333333,0,0,1.3333333,584.58253,35.082926)"><tspan
         id="tspan51"
         style="font-variant:normal;font-weight:normal;font-size:9.163px;font-family:'Myriad Pro';writing-mode:lr-tb;fill:#000000;fill-opacity:1;fill-rule:nonzero;stroke:none"
         x="0"
         y="0">6</tspan></text>
    <path
       id="path51"
       d="m 426.525,123.46928 h 3.6652 3.6652"
       style="fill:none;stroke:#ff7f0e;stroke-width:1;stroke-linecap:square;stroke-linejoin:round;stroke-miterlimit:10;stroke-dasharray:none;stroke-opacity:1"
       transform="matrix(1.3333333,0,0,-1.3333333,0,208.95936)" />
    <text
       id="text52"
       xml:space="preserve"
       transform="matrix(1.3333333,0,0,1.3333333,584.58253,48.609726)"><tspan
         id="tspan52"
         style="font-variant:normal;font-weight:normal;font-size:9.163px;font-family:'Myriad Pro';writing-mode:lr-tb;fill:#000000;fill-opacity:1;fill-rule:nonzero;stroke:none"
         x="0"
         y="0">7</tspan></text>
    <path
       id="path52"
       d="m 426.525,113.32418 h 3.6652 3.6652"
       style="fill:none;stroke:#2ca02c;stroke-width:1;stroke-linecap:square;stroke-linejoin:round;stroke-miterlimit:10;stroke-dasharray:none;stroke-opacity:1"
       transform="matrix(1.3333333,0,0,-1.3333333,0,208.95936)" />
    <text
       id="text53"
       xml:space="preserve"
       transform="matrix(1.3333333,0,0,1.3333333,584.58253,62.136526)"><tspan
         id="tspan53"
         style="font-variant:normal;font-weight:normal;font-size:9.163px;font-family:'Myriad Pro';writing-mode:lr-tb;fill:#000000;fill-opacity:1;fill-rule:nonzero;stroke:none"
         x="0"
         y="0">8</tspan></text>
    <path
       id="path53"
       d="m 426.525,103.17908 h 3.6652 3.6652"
       style="fill:none;stroke:#d62728;stroke-width:1;stroke-linecap:square;stroke-linejoin:round;stroke-miterlimit:10;stroke-dasharray:none;stroke-opacity:1"
       transform="matrix(1.3333333,0,0,-1.3333333,0,208.95936)" />
    <text
       id="text54"
       xml:space="preserve"
       transform="matrix(1.3333333,0,0,1.3333333,584.58253,75.663326)"><tspan
         id="tspan54"
         style="font-variant:normal;font-weight:normal;font-size:9.163px;font-family:'Myriad Pro';writing-mode:lr-tb;fill:#000000;fill-opacity:1;fill-rule:nonzero;stroke:none"
         x="0"
         y="0">9</tspan></text>
    <path
       id="path54"
       d="m 426.525,93.033976 h 3.6652 3.6652"
       style="fill:none;stroke:#9467bd;stroke-width:1;stroke-linecap:square;stroke-linejoin:round;stroke-miterlimit:10;stroke-dasharray:none;stroke-opacity:1"
       transform="matrix(1.3333333,0,0,-1.3333333,0,208.95936)" />
    <text
       id="text55"
       xml:space="preserve"
       transform="matrix(1.3333333,0,0,1.3333333,584.58253,89.190126)"><tspan
         id="tspan55"
         style="font-variant:normal;font-weight:normal;font-size:9.163px;font-family:'Myriad Pro';writing-mode:lr-tb;fill:#000000;fill-opacity:1;fill-rule:nonzero;stroke:none"
         x="0"
         y="0">10</tspan></text>
  </g>
</svg>
